<svg width="80" height="80" viewBox="0 0 80 80" fill="none" xmlns="http://www.w3.org/2000/svg">
<path d="M6.82501 16.675L39.625 5V75L11.925 59.7L6.82501 16.675Z" fill="#DE3641"/>
<path d="M39.625 5L73.175 16.475L67.7 59.5L39.625 75V5Z" fill="#B13138"/>
<path d="M39.625 12.85L60.95 58.425H53.675L49.125 48.025H39.625V41.825H46.55L39.625 27.5L33.8 41.825H39.625V48.025H30.95L26.875 58.425H19.025L39.625 12.85Z" fill="white"/>
<path d="M46.475 70.85L43.675 39.35H74.55L71.725 70.85L59.1 74.35L46.475 70.85Z" fill="#1572B6"/>
<path d="M59.1 71.675L69.325 68.825L71.725 41.925H59.1V71.675Z" fill="#33A9DC"/>
<path d="M59.1 53.325H64.225L64.575 49.375H59.1V45.5H59.125H68.8L68.7 46.55L67.75 57.2H59.1V53.325Z" fill="white"/>
<path d="M59.125 63.375L54.825 62.2L54.55 59.125H52.45H50.65L51.2 65.2L59.1 67.4L59.125 67.375V63.375Z" fill="#EBEBEB"/>
<path d="M63.9 57.025L63.425 62.2L59.125 63.375V67.4L67.05 65.2L67.1 64.55L67.775 57.025H63.9Z" fill="white"/>
<path d="M59.125 45.5V47.9V49.375H49.8L49.725 48.5L49.525 46.55L49.45 45.5H59.125Z" fill="#EBEBEB"/>
<path d="M59.1 53.325V55.725V57.2H54.875H54.85L54.775 56.325L54.6 54.375L54.525 53.325H59.1Z" fill="#EBEBEB"/>
</svg>
