<svg width="193" height="73" viewBox="0 0 193 73" fill="none" xmlns="http://www.w3.org/2000/svg">
<g clip-path="url(#clip0_48_5)" filter="url(#filter0_d_48_5)">
<path d="M115.75 41.2905H116.537V41.2637L116.535 41.2371L115.75 41.2905ZM114.983 41.6028L115.592 41.1052L115.58 41.0909L115.567 41.0772L114.983 41.6028ZM115.054 39.4309L114.278 39.3018L114.277 39.3033L115.054 39.4309ZM114.784 35.3712L114.062 35.6844L114.063 35.6876L114.784 35.3712ZM107.733 19.1746L107.005 19.471L107.008 19.4795L107.012 19.4879L107.733 19.1746ZM106.724 17.9397L106.075 17.496L105.627 18.1492L106.285 18.5914L106.724 17.9397ZM106.909 17.67L107.342 17.014L106.696 16.5887L106.26 17.2263L106.909 17.67ZM114.656 17.5138L115.071 16.8462L114.412 16.4384L113.994 17.0889L114.656 17.5138ZM115.068 17.7693L115.69 18.2497L116.224 17.5609L115.482 17.1017L115.068 17.7693ZM115.21 19.6856L114.473 19.9616L114.477 19.9705L115.21 19.6856ZM116.248 22.2549L115.52 22.5548L115.522 22.5572L116.248 22.2549ZM117.442 25.1082L116.716 25.412L116.719 25.4186L117.442 25.1082ZM119.332 29.4944L118.606 29.7966L119.332 31.5373L120.058 29.7966L119.332 29.4944ZM121.209 25.1082L120.486 24.7977L120.483 24.8043L121.209 25.1082ZM122.417 22.2408L121.69 21.9396L121.69 21.9409L122.417 22.2408ZM123.611 17.7693L123.185 17.1084L122.451 17.5797L122.996 18.2602L123.611 17.7693ZM124.009 17.5138L124.671 17.0889L124.245 16.428L123.583 16.8529L124.009 17.5138ZM131.784 17.67L132.45 17.2504L132.021 16.5728L131.351 17.014L131.784 17.67ZM131.955 17.9397L132.395 18.5914L133.028 18.1652L132.62 17.5201L131.955 17.9397ZM130.945 19.1746L131.67 19.4806L131.674 19.471L130.945 19.1746ZM123.796 36.0667L124.517 36.3792L124.52 36.3726L123.796 36.0667ZM123.938 41.7021L123.162 41.8304L123.162 41.8349L123.938 41.7021ZM122.659 41.9293L121.886 41.7775V41.7787L122.659 41.9293ZM115.537 38.1676H114.75V38.1943L114.752 38.221L115.537 38.1676ZM114.963 41.2905C114.963 41.3431 114.95 41.2359 115.061 41.1133C115.117 41.0516 115.183 41.0127 115.239 40.992C115.266 40.9823 115.287 40.9776 115.301 40.9754C115.316 40.9732 115.323 40.9732 115.323 40.9732V42.5447C115.608 42.5447 115.959 42.4632 116.226 42.1703C116.479 41.8916 116.537 41.5502 116.537 41.2905H114.963ZM115.323 40.9732C115.35 40.9732 115.401 40.9786 115.46 41.0056C115.52 41.0332 115.564 41.0718 115.592 41.1052L114.374 42.1003C114.618 42.3981 114.961 42.5447 115.323 42.5447V40.9732ZM115.567 41.0772C115.609 41.1234 115.631 41.1649 115.642 41.188C115.652 41.211 115.655 41.2226 115.653 41.2167C115.652 41.2113 115.648 41.1951 115.646 41.1656C115.644 41.1363 115.641 41.098 115.641 41.0492H114.068C114.068 41.2218 114.081 41.4004 114.12 41.57C114.157 41.7336 114.233 41.9453 114.397 42.1284L115.567 41.0772ZM115.641 41.0492C115.641 40.8495 115.696 40.3733 115.83 39.5586L114.277 39.3033C114.146 40.0973 114.068 40.6999 114.068 41.0492H115.641ZM115.829 39.5601C115.967 38.7363 116.039 37.9958 116.039 37.3442H114.466C114.466 37.8851 114.405 38.5358 114.278 39.3018L115.829 39.5601ZM116.039 37.3442C116.039 36.6037 115.848 35.8373 115.504 35.0547L114.063 35.6876C114.344 36.3245 114.466 36.8735 114.466 37.3442H116.039ZM115.505 35.0579L108.455 18.8614L107.012 19.4879L114.062 35.6844L115.505 35.0579ZM108.462 18.8781C108.193 18.2207 107.755 17.6861 107.164 17.2879L106.285 18.5914C106.621 18.8177 106.856 19.1066 107.005 19.471L108.462 18.8781ZM107.373 18.3833L107.558 18.1136L106.26 17.2263L106.075 17.496L107.373 18.3833ZM106.475 18.3259C107.061 18.7109 107.725 18.8958 108.444 18.8958V17.3243C108.006 17.3243 107.648 17.2157 107.342 17.014L106.475 18.3259ZM108.444 18.8958H113.404V17.3243H108.444V18.8958ZM113.404 18.8958C114.183 18.8958 114.884 18.613 115.317 17.9387L113.994 17.0889C113.916 17.2096 113.784 17.3243 113.404 17.3243V18.8958ZM114.241 18.1814L114.653 18.4369L115.482 17.1017L115.071 16.8462L114.241 18.1814ZM114.445 17.2889C114.213 17.5901 114.039 17.9582 114.039 18.3797H115.613C115.613 18.4038 115.601 18.3649 115.69 18.2497L114.445 17.2889ZM114.039 18.3797C114.039 18.5988 114.103 18.8521 114.167 19.0694C114.238 19.313 114.342 19.6122 114.473 19.9616L115.947 19.4098C115.822 19.0777 115.733 18.8186 115.677 18.6269C115.613 18.4088 115.613 18.3498 115.613 18.3797H114.039ZM114.477 19.9705C114.744 20.6587 115.093 21.5206 115.52 22.5548L116.975 21.9551C116.549 20.9263 116.206 20.0753 115.944 19.4009L114.477 19.9705ZM115.522 22.5572C115.948 23.5796 116.346 24.5313 116.716 25.412L118.167 24.8043C117.798 23.9249 117.4 22.9743 116.974 21.9527L115.522 22.5572ZM116.719 25.4186C117.098 26.299 117.496 27.2219 117.914 28.1874L119.358 27.565C118.941 26.5999 118.543 25.6775 118.165 24.7977L116.719 25.4186ZM117.914 28.1874C118.332 29.1563 118.561 29.689 118.606 29.7966L120.058 29.1922C120.009 29.0728 119.774 28.5266 119.358 27.565L117.914 28.1874ZM120.058 29.7966C120.103 29.689 120.333 29.1563 120.752 28.1874L119.306 27.565C118.891 28.5266 118.656 29.0728 118.606 29.1922L120.058 29.7966ZM120.752 28.1874C121.169 27.2199 121.564 26.2948 121.934 25.412L120.483 24.8043C120.114 25.6817 119.723 26.6019 119.306 27.565L120.752 28.1874ZM121.931 25.4186C122.312 24.5344 122.716 23.5751 123.144 22.5406L121.69 21.9409C121.265 22.9694 120.863 23.9216 120.486 24.7977L121.931 25.4186ZM123.144 22.5419C123.619 21.3986 123.978 20.5012 124.22 19.8538C124.341 19.5312 124.435 19.2618 124.501 19.051C124.534 18.946 124.562 18.8468 124.583 18.7578C124.6 18.6831 124.625 18.5627 124.625 18.4365H123.051C123.051 18.3742 123.062 18.3493 123.05 18.4018C123.041 18.4399 123.025 18.4995 122.998 18.5849C122.945 18.7551 122.862 18.9932 122.746 19.3045C122.514 19.9253 122.162 20.8022 121.69 21.9396L123.144 22.5419ZM124.625 18.4365C124.625 18.013 124.495 17.615 124.225 17.2785L122.996 18.2602C123.03 18.3022 123.051 18.349 123.051 18.4365H124.625ZM124.037 18.4302L124.435 18.1747L123.583 16.8529L123.185 17.1084L124.037 18.4302ZM123.347 17.9387C123.781 18.613 124.483 18.8958 125.26 18.8958V17.3243C124.882 17.3243 124.749 17.2096 124.671 17.0889L123.347 17.9387ZM125.26 18.8958H130.235V17.3243H125.26V18.8958ZM130.235 18.8958C130.96 18.8958 131.631 18.7124 132.218 18.3259L131.351 17.014C131.047 17.2142 130.685 17.3243 130.235 17.3243V18.8958ZM131.119 18.0895L131.29 18.3593L132.62 17.5201L132.45 17.2504L131.119 18.0895ZM131.515 17.2879C130.923 17.6861 130.485 18.2207 130.217 18.8781L131.674 19.471C131.823 19.1066 132.058 18.8177 132.395 18.5914L131.515 17.2879ZM130.221 18.8687L123.071 35.7608L124.52 36.3726L131.67 19.4806L130.221 18.8687ZM123.073 35.7543C122.958 36.0209 122.905 36.372 122.874 36.72C122.84 37.0935 122.824 37.5596 122.824 38.1108H124.398C124.398 37.5832 124.413 37.1692 124.441 36.8613C124.454 36.7076 124.471 36.5892 124.487 36.5017C124.505 36.4088 124.519 36.3757 124.517 36.3792L123.073 35.7543ZM122.824 38.1108C122.824 39.2412 122.938 40.4821 123.162 41.8304L124.714 41.5739C124.502 40.2914 124.398 39.138 124.398 38.1108H122.824ZM123.162 41.8349C123.388 43.1525 123.492 44.0817 123.492 44.6547H125.066C125.066 43.9407 124.942 42.9016 124.713 41.5694L123.162 41.8349ZM123.492 44.6547C123.492 45.0427 123.418 45.1921 123.392 45.2276C123.387 45.2341 123.386 45.2352 123.387 45.2338C123.389 45.2324 123.391 45.2318 123.389 45.2323C123.388 45.233 123.359 45.2459 123.284 45.2459V46.8174C123.819 46.8174 124.328 46.6181 124.668 46.1472C124.974 45.7237 125.066 45.1846 125.066 44.6547H123.492ZM123.284 45.2459C123.247 45.2459 123.223 45.2427 123.207 45.2397C123.192 45.2367 123.186 45.2338 123.186 45.2337C123.186 45.2337 123.188 45.2348 123.191 45.2368C123.193 45.2388 123.192 45.2383 123.188 45.2323C123.163 45.199 123.09 45.0526 123.09 44.6689H121.516C121.516 45.1937 121.607 45.7286 121.91 46.1495C122.247 46.6183 122.752 46.8174 123.284 46.8174V45.2459ZM123.09 44.6689C123.09 44.1327 123.196 43.2806 123.431 42.0799L121.886 41.7787C121.647 43.0005 121.516 43.9749 121.516 44.6689H123.09ZM123.431 42.081C123.675 40.8397 123.801 39.6856 123.801 38.6218H122.227C122.227 39.5643 122.116 40.6151 121.886 41.7775L123.431 42.081ZM123.801 38.6218C123.801 38.1046 123.771 37.6515 123.686 37.3061C123.644 37.1378 123.575 36.9288 123.439 36.7455C123.289 36.5408 123.022 36.3315 122.645 36.3315V37.9029C122.391 37.9029 122.231 37.7562 122.173 37.6768C122.129 37.619 122.137 37.598 122.158 37.6805C122.195 37.8367 122.227 38.136 122.227 38.6218H123.801ZM122.645 36.3315H115.764V37.9029H122.645V36.3315ZM115.764 36.3315C115.365 36.3315 115.118 36.5811 115.005 36.7552C114.9 36.9163 114.851 37.09 114.825 37.2137C114.769 37.4732 114.75 37.8039 114.75 38.1676H116.324C116.324 37.831 116.343 37.6365 116.363 37.5458C116.374 37.4944 116.373 37.5368 116.325 37.6104C116.298 37.6521 116.242 37.7248 116.145 37.7891C116.039 37.8587 115.907 37.9029 115.764 37.9029V36.3315ZM114.752 38.221L114.966 41.3439L116.535 41.2371L116.322 38.1142L114.752 38.221ZM140.995 45.2225L140.209 45.1901L140.208 45.2063V45.2225H140.995ZM141.152 41.4466L141.938 41.4791L141.939 41.4629V41.4466H141.152ZM141.009 39.1328L140.249 39.3339L140.252 39.3443L140.255 39.3546L141.009 39.1328ZM140.74 38.2811L140.005 38.5632L140.74 38.2811ZM139.83 37.2591L139.393 37.9129L139.4 37.9175L139.408 37.922L139.83 37.2591ZM135.793 37.8979L135.193 37.3893L135.189 37.3941L135.793 37.8979ZM135.139 41.9861L135.911 41.8339L135.91 41.8319L135.139 41.9861ZM134.115 41.9719L133.344 41.8139L133.343 41.8234L134.115 41.9719ZM134.343 40.2969L133.557 40.2763L133.556 40.2866V40.2969H134.343ZM134.443 36.4926L135.229 36.5131L135.23 36.5028V36.4926H134.443ZM133.888 18.3939L133.318 17.852L132.782 18.4146L133.339 18.9566L133.888 18.3939ZM134.172 18.0958L134.715 17.5269L134.145 16.985L133.602 17.5539L134.172 18.0958ZM142.161 18.0958L142.731 17.5539L142.175 16.9709L141.605 17.5402L142.161 18.0958ZM142.445 18.3939L143.002 18.9495L143.545 18.4073L143.015 17.852L142.445 18.3939ZM141.735 38.9625L140.95 38.8947V38.8952L141.735 38.9625ZM141.635 41.7589V42.5447H142.469L142.421 41.7134L141.635 41.7589ZM141.621 41.7589V40.9732H140.64L140.853 41.9298L141.621 41.7589ZM141.781 45.255L141.938 41.4791L140.366 41.4142L140.209 45.1901L141.781 45.255ZM141.939 41.4466C141.939 40.8283 141.927 40.3125 141.902 39.9045C141.878 39.5161 141.84 39.1647 141.765 38.9111L140.255 39.3546C140.275 39.4228 140.308 39.6179 140.331 40.0007C140.353 40.364 140.365 40.8443 140.365 41.4466H141.939ZM141.77 38.9318C141.68 38.5894 141.581 38.2774 141.474 37.9991L140.005 38.5632C140.087 38.7769 140.169 39.0328 140.249 39.3339L141.77 38.9318ZM141.474 37.9991C141.349 37.6735 141.172 37.3743 140.926 37.1293L139.813 38.2405C139.872 38.2984 139.941 38.3966 140.005 38.5632L141.474 37.9991ZM140.926 37.1293C140.729 36.9318 140.502 36.755 140.253 36.5962L139.408 37.922C139.574 38.0282 139.708 38.1352 139.813 38.2405L140.926 37.1293ZM140.266 36.6054C139.673 36.2101 138.856 36.0759 137.954 36.0759V37.6474C138.757 37.6474 139.191 37.7782 139.393 37.9129L140.266 36.6054ZM137.954 36.0759C136.854 36.0759 135.92 36.5355 135.193 37.3893L136.392 38.4065C136.842 37.8786 137.348 37.6474 137.954 37.6474V36.0759ZM135.189 37.3941C134.484 38.2368 134.139 39.2469 134.139 40.382H135.713C135.713 39.5866 135.946 38.9406 136.396 38.4017L135.189 37.3941ZM134.139 40.382C134.139 40.8225 134.223 41.4197 134.367 42.1402L135.91 41.8319C135.771 41.1328 135.713 40.6607 135.713 40.382H134.139ZM134.367 42.1382C134.507 42.8477 134.566 43.3249 134.566 43.6043H136.139C136.139 43.1644 136.055 42.5629 135.911 41.8339L134.367 42.1382ZM134.566 43.6043C134.566 43.7308 134.554 43.8168 134.541 43.8709C134.529 43.9248 134.518 43.9321 134.529 43.9167C134.543 43.8962 134.572 43.8692 134.61 43.8515C134.643 43.8357 134.656 43.8406 134.627 43.8406V45.412C135.079 45.412 135.52 45.2379 135.813 44.825C136.071 44.4617 136.139 44.0139 136.139 43.6043H134.566ZM134.627 43.8406C134.596 43.8406 134.606 43.8353 134.637 43.8497C134.673 43.8661 134.703 43.8924 134.72 43.9153C134.732 43.9333 134.724 43.9302 134.712 43.8819C134.7 43.8332 134.689 43.7532 134.689 43.6327H133.115C133.115 44.0359 133.185 44.4805 133.447 44.8406C133.744 45.247 134.185 45.412 134.627 45.412V43.8406ZM134.689 43.6327C134.689 43.3418 134.748 42.8488 134.888 42.1202L133.343 41.8234C133.199 42.5712 133.115 43.1854 133.115 43.6327H134.689ZM134.887 42.1297C135.04 41.3801 135.13 40.7579 135.13 40.2969H133.556C133.556 40.5928 133.494 41.0874 133.344 41.8139L134.887 42.1297ZM135.13 40.3174L135.229 36.5131L133.656 36.472L133.557 40.2763L135.13 40.3174ZM135.23 36.4926V19.8134H133.656V36.4926H135.23ZM135.23 19.8134C135.23 19.0468 134.98 18.3597 134.437 17.8312L133.339 18.9566C133.535 19.1474 133.656 19.4065 133.656 19.8134H135.23ZM134.458 18.9357L134.743 18.6376L133.602 17.5539L133.318 17.852L134.458 18.9357ZM133.63 18.6647C134.174 19.1825 134.842 19.4493 135.594 19.4493V17.8779C135.246 17.8779 134.967 17.7662 134.715 17.5269L133.63 18.6647ZM135.594 19.4493H140.74V17.8779H135.594V19.4493ZM140.74 19.4493C141.503 19.4493 142.181 19.1869 142.718 18.6514L141.605 17.5402C141.383 17.7618 141.113 17.8779 140.74 17.8779V19.4493ZM141.592 18.6376L141.876 18.9357L143.015 17.852L142.731 17.5539L141.592 18.6376ZM141.889 17.8383C141.356 18.371 141.104 19.0519 141.104 19.8134H142.677C142.677 19.4203 142.796 19.1549 143.002 18.9495L141.889 17.8383ZM141.104 19.8134V36.4216H142.677V19.8134H141.104ZM141.104 36.4216C141.104 36.876 141.055 37.6924 140.95 38.8947L142.519 39.0303C142.622 37.8289 142.677 36.9514 142.677 36.4216H141.104ZM140.95 38.8952C140.846 40.118 140.809 41.0946 140.85 41.8044L142.421 41.7134C142.386 41.1173 142.415 40.2296 142.519 39.0298L140.95 38.8952ZM141.635 40.9732H141.621V42.5447H141.635V40.9732ZM140.853 41.9298C141.201 43.4871 141.36 44.6159 141.36 45.3503H142.934C142.934 44.4381 142.743 43.1725 142.389 41.588L140.853 41.9298ZM141.36 45.3503C141.36 45.533 141.351 45.6788 141.337 45.792C141.323 45.908 141.304 45.9714 141.294 45.9979C141.282 46.0273 141.294 45.9787 141.364 45.9179C141.448 45.8431 141.565 45.7995 141.677 45.7995V47.371C141.947 47.371 142.2 47.2759 142.402 47.0983C142.589 46.9345 142.698 46.7315 142.766 46.5552C142.895 46.2135 142.934 45.7891 142.934 45.3503H141.36ZM141.677 45.7995C141.702 45.7995 141.758 45.8078 141.816 45.8463C141.869 45.8816 141.88 45.9136 141.869 45.8932C141.858 45.8697 141.834 45.8084 141.814 45.6895C141.795 45.5728 141.782 45.419 141.782 45.2225H140.208C140.208 45.7169 140.267 46.2047 140.463 46.5959C140.566 46.8027 140.719 47.005 140.943 47.1538C141.172 47.3059 141.426 47.371 141.677 47.371V45.7995ZM153.718 32.234L153.01 31.8913L152.667 32.5959L153.372 32.9399L153.718 32.234ZM154.911 37.8411L155.468 38.3967L156.024 37.8411L155.468 37.2855L154.911 37.8411ZM154.627 38.125L154.071 38.6806L154.627 39.2362L155.184 38.6806L154.627 38.125ZM146.852 38.125L146.295 38.6806L146.852 39.2362L147.409 38.6806L146.852 38.125ZM146.567 37.8411L146.011 37.2855L145.455 37.8411L146.011 38.3967L146.567 37.8411ZM146.567 18.3939L145.998 17.852L145.468 18.4073L146.011 18.9495L146.567 18.3939ZM146.852 18.0958L147.409 17.5402L146.838 16.9709L146.282 17.5539L146.852 18.0958ZM154.627 18.0958L155.197 17.5539L154.641 16.9709L154.071 17.5402L154.627 18.0958ZM154.911 18.3939L155.468 18.9495L156.011 18.4073L155.481 17.852L154.911 18.3939ZM154.016 25.8605L153.295 25.5463L152.97 26.289L153.724 26.59L154.016 25.8605ZM154.229 25.9456L153.937 26.6752L154.652 26.9606L154.953 26.2536L154.229 25.9456ZM155.182 24.5829L155.725 25.1513L155.726 25.1504L155.182 24.5829ZM160.541 19.4586L159.997 18.8907V18.891L160.541 19.4586ZM160.938 18.8907L160.192 18.6423L160.186 18.6612L160.181 18.6805L160.938 18.8907ZM160.896 18.2094L160.622 17.4728L159.93 17.7294L160.142 18.4352L160.896 18.2094ZM161.394 18.0249L162.119 17.7192L161.826 17.0265L161.119 17.2883L161.394 18.0249ZM171.301 18.3513L172.042 18.087L171.775 17.3408L171.031 17.6136L171.301 18.3513ZM171.372 18.55L171.648 19.2857L172.374 19.0142L172.113 18.2858L171.372 18.55ZM169.936 19.416L170.453 20.0089L170.459 20.0032L169.936 19.416ZM164.165 24.4268L163.649 23.8339L163.643 23.8395L163.636 23.8454L164.165 24.4268ZM162.758 24.8952L162.857 24.1158L162.078 24.0168L161.978 24.7947L162.758 24.8952ZM162.702 25.3353L161.921 25.2347L161.816 26.0425L162.628 26.1176L162.702 25.3353ZM163.952 26.1302L163.297 26.566L163.303 26.5737L163.308 26.5812L163.952 26.1302ZM171.315 36.6204L171.966 36.1785L171.963 36.1739L171.96 36.1694L171.315 36.6204ZM172.538 37.7275L173.223 38.1127L173.617 37.4152L172.911 37.0358L172.538 37.7275ZM172.41 37.9547L172.042 38.6491L172.72 39.0074L173.096 38.3399L172.41 37.9547ZM162.758 38.2102L162.389 38.904L163.082 39.2721L163.452 38.5799L162.758 38.2102ZM162.303 37.9689L161.595 37.6273L161.266 38.3081L161.934 38.6627L162.303 37.9689ZM162.46 37.2875L161.682 37.404L161.683 37.41L162.46 37.2875ZM162.161 36.6061L162.823 36.1812L162.818 36.1732L162.813 36.1654L162.161 36.6061ZM158.096 30.6159L157.436 31.0427L157.439 31.0497L157.444 31.0566L158.096 30.6159ZM157.726 29.1111L158.506 29.2104L158.608 28.4184L157.813 28.3302L157.726 29.1111ZM157.343 29.0685L157.429 28.2876L156.661 28.2025L156.562 28.9676L157.343 29.0685ZM156.561 30.3887L156.064 29.7789L156.056 29.7857L156.048 29.7926L156.561 30.3887ZM155.253 31.5101L155.747 32.1214L155.756 32.1139L155.765 32.1062L155.253 31.5101ZM154.613 31.865L154.451 31.0961L154.443 31.098L154.613 31.865ZM153.945 31.7656L154.224 31.0309L153.551 30.7761L153.237 31.4229L153.945 31.7656ZM153.372 32.9399C153.45 32.9782 153.485 33.0176 153.508 33.0592C153.535 33.1091 153.571 33.2098 153.571 33.3981H155.144C155.144 33.0185 155.073 32.6413 154.887 32.3032C154.697 31.9568 154.411 31.6982 154.063 31.5282L153.372 32.9399ZM153.571 33.3981V36.4216H155.144V33.3981H153.571ZM153.571 36.4216C153.571 37.183 153.822 37.864 154.355 38.3967L155.468 37.2855C155.262 37.0801 155.144 36.8147 155.144 36.4216H153.571ZM154.355 37.2855L154.071 37.5694L155.184 38.6806L155.468 38.3967L154.355 37.2855ZM155.184 37.5694C154.65 37.0367 153.968 36.7857 153.206 36.7857V38.3571C153.6 38.3571 153.865 38.4751 154.071 38.6806L155.184 37.5694ZM153.206 36.7857H148.273V38.3571H153.206V36.7857ZM148.273 36.7857C147.511 36.7857 146.829 37.0367 146.295 37.5694L147.409 38.6806C147.614 38.4751 147.88 38.3571 148.273 38.3571V36.7857ZM147.409 37.5694L147.124 37.2855L146.011 38.3967L146.295 38.6806L147.409 37.5694ZM147.124 38.3967C147.657 37.864 147.909 37.183 147.909 36.4216H146.335C146.335 36.8147 146.217 37.0801 146.011 37.2855L147.124 38.3967ZM147.909 36.4216V19.8134H146.335V36.4216H147.909ZM147.909 19.8134C147.909 19.0519 147.657 18.371 147.124 17.8383L146.011 18.9495C146.217 19.1549 146.335 19.4203 146.335 19.8134H147.909ZM147.137 18.9357L147.422 18.6376L146.282 17.5539L145.998 17.852L147.137 18.9357ZM146.295 18.6514C146.832 19.1869 147.51 19.4493 148.273 19.4493V17.8779C147.899 17.8779 147.63 17.7618 147.409 17.5402L146.295 18.6514ZM148.273 19.4493H153.206V17.8779H148.273V19.4493ZM153.206 19.4493C153.969 19.4493 154.647 19.1869 155.184 18.6514L154.071 17.5402C153.849 17.7618 153.58 17.8779 153.206 17.8779V19.4493ZM154.058 18.6376L154.342 18.9357L155.481 17.852L155.197 17.5539L154.058 18.6376ZM154.355 17.8383C153.822 18.371 153.571 19.0519 153.571 19.8134H155.144C155.144 19.4203 155.262 19.1549 155.468 18.9495L154.355 17.8383ZM153.571 19.8134V24.2281H155.144V19.8134H153.571ZM153.571 24.2281C153.571 24.6877 153.479 25.1249 153.295 25.5463L154.738 26.1748C155.008 25.5551 155.144 24.904 155.144 24.2281H153.571ZM153.724 26.59L153.937 26.6752L154.521 25.2161L154.308 25.1309L153.724 26.59ZM154.953 26.2536C155.128 25.8443 155.383 25.4778 155.725 25.1513L154.638 24.0146C154.147 24.483 153.767 25.025 153.505 25.6378L154.953 26.2536ZM155.726 25.1504L161.085 20.026L159.997 18.891L154.638 24.0155L155.726 25.1504ZM161.085 20.0263C161.341 19.7809 161.594 19.4726 161.697 19.1011L160.181 18.6805C160.187 18.6578 160.189 18.6671 160.159 18.7098C160.13 18.7517 160.079 18.8122 159.997 18.8907L161.085 20.0263ZM161.685 19.1392C161.817 18.7444 161.754 18.331 161.65 17.9836L160.142 18.4352C160.173 18.5358 160.183 18.6029 160.185 18.6416C160.188 18.6803 160.181 18.6746 160.192 18.6423L161.685 19.1392ZM161.17 18.9459L161.668 18.7614L161.119 17.2883L160.622 17.4728L161.17 18.9459ZM160.668 18.3304C160.82 18.6898 161.071 18.9881 161.42 19.1866C161.757 19.3788 162.138 19.4493 162.517 19.4493V17.8779C162.326 17.8779 162.235 17.8419 162.199 17.8212C162.174 17.8067 162.146 17.7857 162.119 17.7192L160.668 18.3304ZM162.517 19.4493H169.652V17.8779H162.517V19.4493ZM169.652 19.4493C170.287 19.4493 170.929 19.3245 171.572 19.089L171.031 17.6136C170.537 17.7945 170.079 17.8779 169.652 17.8779V19.4493ZM170.56 18.6156L170.631 18.8143L172.113 18.2858L172.042 18.087L170.56 18.6156ZM171.096 17.8144C170.474 18.0473 169.912 18.3864 169.414 18.8287L170.459 20.0032C170.814 19.6884 171.209 19.4503 171.648 19.2857L171.096 17.8144ZM169.42 18.823L163.649 23.8339L164.682 25.0198L170.453 20.0089L169.42 18.823ZM163.636 23.8454C163.376 24.082 163.132 24.1507 162.857 24.1158L162.659 25.6747C163.427 25.7722 164.121 25.5287 164.695 25.0081L163.636 23.8454ZM161.978 24.7947L161.921 25.2347L163.481 25.4358L163.539 24.9958L161.978 24.7947ZM162.628 26.1176C162.872 26.14 163.088 26.2517 163.297 26.566L164.607 25.6944C164.172 25.0434 163.554 24.6251 162.774 24.5529L162.628 26.1176ZM163.308 26.5812L170.671 37.0713L171.96 36.1694L164.596 25.6792L163.308 26.5812ZM170.665 37.0622C171.057 37.6371 171.558 38.093 172.164 38.4193L172.911 37.0358C172.532 36.8321 172.219 36.5499 171.966 36.1785L170.665 37.0622ZM171.852 37.3424L171.724 37.5694L173.096 38.3399L173.223 38.1127L171.852 37.3424ZM172.778 37.2602C172.175 36.9413 171.517 36.7857 170.818 36.7857V38.3571C171.275 38.3571 171.678 38.457 172.042 38.6491L172.778 37.2602ZM170.818 36.7857H163.952V38.3571H170.818V36.7857ZM163.952 36.7857C163.155 36.7857 162.455 37.1083 162.064 37.8404L163.452 38.5799C163.516 38.4603 163.613 38.3571 163.952 38.3571V36.7857ZM163.127 37.5163L162.672 37.2749L161.934 38.6627L162.389 38.904L163.127 37.5163ZM163.012 38.3104C163.172 37.9794 163.302 37.5774 163.237 37.1649L161.683 37.41C161.677 37.3774 161.684 37.3752 161.675 37.4172C161.665 37.459 161.643 37.5278 161.595 37.6273L163.012 38.3104ZM163.237 37.1709C163.185 36.8232 163.019 36.4868 162.823 36.1812L161.499 37.031C161.644 37.2555 161.677 37.3732 161.682 37.404L163.237 37.1709ZM162.813 36.1654L158.747 30.175L157.444 31.0566L161.51 37.0469L162.813 36.1654ZM158.757 30.189C158.534 29.8461 158.466 29.5288 158.506 29.2104L156.945 29.012C156.853 29.7344 157.032 30.4203 157.436 31.0427L158.757 30.189ZM157.813 28.3302L157.429 28.2876L157.255 29.8495L157.639 29.8921L157.813 28.3302ZM156.562 28.9676C156.525 29.2514 156.386 29.5182 156.064 29.7789L157.057 30.9985C157.645 30.5211 158.027 29.9078 158.122 29.1696L156.562 28.9676ZM156.048 29.7926L154.74 30.914L155.765 32.1062L157.073 30.9848L156.048 29.7926ZM154.759 30.8989C154.66 30.9778 154.583 31.0292 154.526 31.061C154.467 31.0936 154.443 31.0977 154.451 31.0962L154.775 32.6339C155.135 32.5581 155.465 32.3494 155.747 32.1214L154.759 30.8989ZM154.443 31.098C154.474 31.091 154.476 31.0977 154.434 31.0914C154.392 31.0852 154.324 31.0687 154.224 31.0309L153.666 32.5002C153.997 32.6256 154.393 32.7188 154.784 32.632L154.443 31.098ZM153.237 31.4229L153.01 31.8913L154.425 32.5768L154.653 32.1084L153.237 31.4229Z" fill="white"/>
<path d="M45.1693 42.6049L45.5074 39.4283C45.5074 38.1393 44.9798 37.1571 43.9245 36.4819C42.8796 35.7964 41.7783 35.4946 40.6206 35.5764C39.4629 35.6481 38.6536 36.0369 38.1926 36.7427C37.957 37.0804 37.8391 37.4793 37.8391 37.9398L37.7623 42.0524C37.7623 42.6152 37.8494 43.449 38.0235 44.5538C38.1977 45.669 38.2848 46.5079 38.2848 47.0706C38.2848 48.063 38.0031 48.5592 37.4396 48.5592C36.8761 48.5592 36.5944 48.0783 36.5944 47.1166C36.5944 46.4823 36.6866 45.5718 36.871 44.3851C37.0555 43.1983 37.1579 42.298 37.1784 41.6842C37.2091 41.0703 37.2245 39.7608 37.2245 37.7556C37.2245 37.2236 37.0606 36.6097 36.7327 35.914C36.4048 35.2184 35.8875 34.2618 35.1806 33.0444C34.4737 31.8269 33.8949 30.7527 33.4441 29.8217L32.9831 29.5608C32.7372 30.011 32.3018 30.2361 31.6769 30.2361L30.386 30.2821C29.505 30.2821 28.8442 30.0672 28.4037 29.6375L28.081 29.9445C28.1117 30.323 28.1271 31.1312 28.1271 32.3691L28.1117 36.1289C28.1117 37.2543 28.1322 38.0829 28.1732 38.6149L28.4651 40.8708C28.4651 41.2903 28.3217 41.5 28.0348 41.5C27.748 41.5 27.6045 41.3056 27.6045 40.9168L27.8504 39.0139C27.8504 38.5536 27.7122 38.1852 27.4355 37.9091C27.1691 37.643 26.8157 37.5101 26.3752 37.5101C25.9449 37.5101 25.5607 37.6993 25.2227 38.0778C24.8948 38.4666 24.7309 38.9679 24.7309 39.5818C24.7309 40.1956 24.8436 41.0243 25.069 42.0678C25.2944 43.1216 25.4071 43.8786 25.4071 44.339C25.4071 45.3007 25.0639 45.7815 24.3775 45.7815C23.691 45.7815 23.3479 45.311 23.3479 44.3697C23.3479 43.9297 23.4452 43.1625 23.6398 42.0678C23.8447 40.9731 23.9472 40.1036 23.9472 39.459C23.9472 38.8144 23.7986 38.2824 23.5015 37.863C23.2044 37.4538 22.8663 37.2491 22.4873 37.2491C22.1082 37.2491 21.7855 37.377 21.5192 37.6328C21.2528 37.8988 21.1196 38.2262 21.1196 38.6149L21.5345 42.2519C21.5345 42.876 21.304 43.188 20.843 43.188C20.382 43.188 20.1515 42.8709 20.1515 42.2366C20.1515 41.8683 20.2488 41.2237 20.4434 40.303C20.6381 39.3925 20.7303 38.6815 20.7201 38.1699C20.7098 37.6584 20.7047 31.0392 20.7047 18.3122C20.7047 17.6779 20.51 17.1715 20.1207 16.793L20.4281 16.4861C20.8276 16.8749 21.3347 17.0692 21.9494 17.0692H35.7184C37.8699 17.0692 39.3144 17.1357 40.052 17.2687C40.7999 17.3915 41.4505 17.5245 42.0037 17.6677C42.5672 17.811 43.0384 17.9899 43.4175 18.2048C43.8068 18.4094 44.1961 18.6703 44.5854 18.9875C44.9849 19.2944 45.3025 19.6473 45.5381 20.0463C46.0811 20.9569 46.3526 21.9236 46.3526 22.9467C46.3526 23.9698 46.2706 24.8087 46.1067 25.4634C45.953 26.108 45.6918 26.7167 45.323 27.2897C44.5239 28.5275 43.1204 29.1465 41.1124 29.1465L40.9895 29.4995C41.6349 29.7552 42.0651 30.1082 42.2803 30.5583C43.1818 32.5226 43.8478 33.7708 44.278 34.3027C44.7083 34.8245 45.1078 35.244 45.4767 35.5611C45.8455 35.8783 46.3731 36.2005 47.0595 36.5279C47.7459 36.8553 48.1608 37.0701 48.3042 37.1724C48.4476 37.2645 48.5194 37.3412 48.5194 37.4027C48.5194 38.4257 48.6576 39.7403 48.9343 41.3466C49.2109 42.9528 49.3492 43.9861 49.3492 44.4464C49.3492 44.9068 49.3287 45.2393 49.2877 45.4439C49.257 45.6485 49.1802 45.8481 49.0573 46.0424C48.9343 46.2471 48.755 46.3494 48.5194 46.3494C48.2837 46.3494 48.1044 46.1805 47.9815 45.8429C47.8688 45.5053 47.8125 45.091 47.8125 44.5999C47.8125 44.1088 47.8791 43.229 48.0122 41.9604C48.1454 40.702 48.212 39.7505 48.212 39.106C48.212 37.8272 47.7971 37.1878 46.9673 37.1878C46.5575 37.1878 46.2501 37.2594 46.0452 37.4027C45.8506 37.5458 45.7532 37.8374 45.7532 38.2773C45.7532 38.7275 45.8454 39.4385 46.0299 40.4105C46.2143 41.3824 46.3065 42.1138 46.3065 42.6049C46.3065 43.1062 46.117 43.3569 45.7379 43.3569C45.3588 43.3569 45.1693 43.1062 45.1693 42.6049ZM34.9347 22.164L31.3081 22.2715C29.8225 22.2715 28.8545 22.0515 28.4037 21.6116L28.081 21.9032C28.4907 22.3022 28.6957 22.8137 28.6957 23.4378V24.466C28.6957 25.0798 28.4907 25.5913 28.081 26.0005L28.4037 26.3075C28.8442 25.8573 29.756 25.6323 31.139 25.6323L35.0269 25.7704C36.0616 25.7704 36.8608 25.6374 37.4242 25.3714C37.998 25.0952 38.2848 24.5939 38.2848 23.8675C38.2848 23.4071 38.126 23.049 37.8084 22.7932C37.4908 22.5273 37.1067 22.3584 36.6558 22.2869C36.2051 22.205 35.6314 22.164 34.9347 22.164ZM76.3648 20.2305L76.5031 28.0723C76.5031 30.8038 76.165 32.804 75.4888 34.0726C74.8537 35.2797 73.947 36.1852 72.7689 36.7888C71.4267 37.4845 69.6442 37.9346 67.4211 38.1393V41.0089L67.5747 42.5896C67.5747 42.9374 67.4774 43.1113 67.2827 43.1113C67.0881 43.1113 66.9908 42.7737 66.9908 42.0985L67.083 39.5971C67.083 38.4922 66.7398 37.9398 66.0534 37.9398C65.5206 37.9398 65.2543 38.3745 65.2543 39.2441C65.2543 39.2441 65.2799 39.6892 65.3311 40.5792C65.3311 40.8862 65.3926 41.3312 65.5155 41.9143C65.6487 42.5078 65.7153 42.9272 65.7153 43.1727C65.7153 43.4182 65.664 43.6228 65.5616 43.7866C65.4592 43.9503 65.3106 44.0321 65.116 44.0321C64.9213 44.0321 64.7728 43.9451 64.6703 43.7712C64.5781 43.6075 64.532 43.408 64.532 43.1727C64.532 42.9374 64.5986 42.5486 64.7318 42.0064C64.8752 41.4744 64.947 41.1317 64.947 40.9782C64.947 40.8248 64.947 40.6662 64.947 40.5025C64.947 40.3491 64.9418 40.1905 64.9315 40.0268C64.9213 39.8631 64.8957 39.6584 64.8547 39.413C64.7728 38.9014 64.5269 38.6457 64.1171 38.6457C63.359 38.6457 62.98 39.3925 62.98 40.8862V41.5921C62.98 41.9706 63.0722 42.5231 63.2565 43.2495C63.4409 43.9758 63.5332 44.4976 63.5332 44.8148C63.5332 45.6025 63.277 45.9964 62.7648 45.9964C62.5087 45.9964 62.3038 45.8889 62.1501 45.6741C62.0067 45.4593 61.9349 45.183 61.9349 44.8454C61.9349 44.5078 62.0169 43.9349 62.1808 43.1267C62.355 42.3185 62.4421 41.7046 62.4421 41.2852V38.2313C59.5326 38.0983 57.3504 37.6737 55.8957 36.9576C53.3549 35.7299 52.0487 33.3973 51.977 29.9598C51.9565 29.0084 51.9462 27.5914 51.9462 25.709L51.977 18.6191C51.977 18.0156 51.7772 17.5091 51.3777 17.0999L51.7004 16.793C52.0794 17.1818 52.5865 17.3761 53.2217 17.3761H58.6617C59.2867 17.3761 59.7938 17.1818 60.1831 16.793L60.5058 17.0999C60.1165 17.4989 59.9218 18.0053 59.9218 18.6191L59.9526 26.507C59.9526 28.0314 59.9936 28.9981 60.0756 29.4074C60.1575 29.8166 60.2446 30.1951 60.3368 30.543C60.4392 30.8806 60.557 31.1517 60.6902 31.3563C60.8336 31.561 61.0129 31.7809 61.2281 32.0162C61.4432 32.2412 61.689 32.4152 61.9657 32.538C62.6111 32.8244 63.2412 32.9676 63.8558 32.9676C64.4808 32.9676 64.9623 32.9421 65.3004 32.8909C65.6487 32.8295 65.9509 32.7375 66.207 32.6147C66.4734 32.4817 66.7091 32.3436 66.914 32.2004C67.1291 32.0469 67.3084 31.8576 67.4518 31.6325C67.6055 31.3972 67.7386 31.1773 67.8514 30.9727C67.964 30.7578 68.0511 30.4918 68.1126 30.1746C68.1843 29.8575 68.2407 29.5813 68.2816 29.3459C68.3226 29.1005 68.3533 28.7935 68.3738 28.4252C68.4046 27.8625 68.4199 27.2231 68.4199 26.507L68.4507 18.6191C68.4507 17.995 68.2611 17.4887 67.882 17.0999L68.174 16.793C68.5633 17.1818 69.0756 17.3761 69.7108 17.3761H75.1508C75.7962 17.3761 76.3085 17.1818 76.6875 16.793L76.9949 17.0999C76.5748 17.5296 76.3648 18.5731 76.3648 20.2305ZM67.7898 46.0884C67.7898 46.5693 67.6208 46.8097 67.2827 46.8097C66.9446 46.8097 66.7756 46.5591 66.7756 46.0578C66.7756 45.5667 66.8473 45.1472 66.9908 44.7994C67.1444 44.4618 67.2366 44.293 67.2674 44.293C67.2981 44.293 67.3545 44.3851 67.4364 44.5692C67.672 45.1012 67.7898 45.6076 67.7898 46.0884ZM80.1758 21.1052L80.2527 19.1409C80.2527 18.0156 80.0324 17.238 79.5919 16.8083L79.8993 16.5014C80.309 16.9004 80.8161 17.0999 81.4206 17.0999H101.598C102.222 17.0999 102.735 16.9004 103.134 16.5014L103.442 16.8083C103.053 17.1971 102.858 17.7087 102.858 18.3429L102.781 20.3072C102.781 21.4121 103.001 22.1846 103.442 22.6245L103.134 22.9467C102.673 22.4761 101.926 22.2408 100.891 22.2408L97.4946 22.4556C96.419 22.4556 95.6455 22.2203 95.1742 21.7497L94.8516 22.0566C95.2511 22.4454 95.4509 22.9569 95.4509 23.5912V36.3284C95.4509 37.3924 95.5431 38.9782 95.7275 41.0857C95.9222 43.1931 96.0195 44.5795 96.0195 45.2444C96.0195 46.4107 95.8094 46.9939 95.3894 46.9939C94.9694 46.9939 94.7594 46.5795 94.7594 45.7509C94.7594 44.9222 94.8259 43.7968 94.9591 42.3747C95.1026 40.9629 95.1742 39.8989 95.1742 39.1828C95.1742 38.0676 94.954 37.5101 94.5135 37.5101C94.2984 37.5101 94.1293 37.6379 94.0064 37.8937C93.8834 38.1495 93.822 38.4001 93.822 38.6457L94.1754 41.8529C94.1754 42.5896 93.9654 42.9579 93.5453 42.9579C93.3302 42.9579 93.1714 42.8505 93.069 42.6356C92.9665 42.4208 92.9152 42.1701 92.9152 41.8837C92.9152 41.5972 93.0075 41.1266 93.1919 40.4718C93.3763 39.8273 93.4685 39.3004 93.4685 38.8912C93.4685 38.482 93.2892 38.1699 92.9307 37.9551C92.5824 37.7402 92.1367 37.6328 91.5937 37.6328C91.061 37.6328 90.5026 37.7402 89.9186 37.9551C89.345 38.1699 88.8379 38.5024 88.3974 38.9526C87.9568 39.413 87.7365 39.8631 87.7365 40.303C87.7365 40.7532 87.8031 41.2954 87.9363 41.9297C88.0797 42.564 88.1515 43.0908 88.1515 43.5103C88.1515 43.94 87.9619 44.1549 87.5829 44.1549C87.1526 44.1549 86.9374 43.9246 86.9374 43.4643C86.9374 43.0142 87.0194 42.4412 87.1833 41.7455C87.3472 41.0499 87.4292 40.5281 87.4292 40.1802V36.1903C87.4497 30.5839 87.4599 26.3842 87.4599 23.5912C87.4599 22.9467 87.6545 22.4352 88.0438 22.0566L87.7365 21.7497C87.2858 22.2101 86.5379 22.4403 85.4929 22.4403L82.1889 22.2408C81.1338 22.2408 80.3705 22.4761 79.8993 22.9467L79.5919 22.6245C79.9812 22.2357 80.1758 21.7292 80.1758 21.1052ZM93.4224 45.2751C93.6683 46.4005 93.7912 47.3775 93.7912 48.2062C93.7912 48.5643 93.6632 48.7433 93.407 48.7433C93.1509 48.7433 93.0229 48.5796 93.0229 48.2523C93.0229 47.3315 93.156 46.3391 93.4224 45.2751Z" fill="white"/>
</g>
<defs>
<filter id="filter0_d_48_5" x="-2" y="-13" width="195" height="95" filterUnits="userSpaceOnUse" color-interpolation-filters="sRGB">
<feFlood flood-opacity="0" result="BackgroundImageFix"/>
<feColorMatrix in="SourceAlpha" type="matrix" values="0 0 0 0 0 0 0 0 0 0 0 0 0 0 0 0 0 0 127 0" result="hardAlpha"/>
<feOffset dy="4"/>
<feGaussianBlur stdDeviation="10"/>
<feComposite in2="hardAlpha" operator="out"/>
<feColorMatrix type="matrix" values="0 0 0 0 1 0 0 0 0 1 0 0 0 0 1 0 0 0 0.25 0"/>
<feBlend mode="normal" in2="BackgroundImageFix" result="effect1_dropShadow_48_5"/>
<feBlend mode="normal" in="SourceGraphic" in2="effect1_dropShadow_48_5" result="shape"/>
</filter>
<clipPath id="clip0_48_5">
<rect width="155" height="55" fill="white" transform="translate(18 3)"/>
</clipPath>
</defs>
</svg>
