<svg width="155" height="55" viewBox="0 0 155 55" fill="none" xmlns="http://www.w3.org/2000/svg">
<g clip-path="url(#clip0_48_5)">
<path d="M97.7499 38.2905H98.5367V38.2637L98.5352 38.2371L97.7499 38.2905ZM96.9828 38.6028L97.5918 38.1052L97.58 38.0909L97.5674 38.0772L96.9828 38.6028ZM97.0536 36.4309L96.2778 36.3018L96.2771 36.3033L97.0536 36.4309ZM96.7838 32.3712L96.0623 32.6844L96.063 32.6876L96.7838 32.3712ZM89.7332 16.1746L89.0046 16.471L89.0078 16.4795L89.0117 16.4879L89.7332 16.1746ZM88.7238 14.9397L88.0746 14.496L87.627 15.1492L88.2847 15.5914L88.7238 14.9397ZM88.9087 14.67L89.3422 14.014L88.6962 13.5887L88.2595 14.2263L88.9087 14.67ZM96.6555 14.5138L97.0709 13.8462L96.4124 13.4384L95.9938 14.0889L96.6555 14.5138ZM97.0678 14.7693L97.6902 15.2497L98.2236 14.5609L97.4824 14.1017L97.0678 14.7693ZM97.2102 16.6856L96.473 16.9616L96.4769 16.9705L97.2102 16.6856ZM98.248 19.2549L97.5202 19.5548L97.5218 19.5572L98.248 19.2549ZM99.4416 22.1082L98.7161 22.412L98.7193 22.4186L99.4416 22.1082ZM101.332 26.4944L100.606 26.7966L101.332 28.5373L102.058 26.7966L101.332 26.4944ZM103.209 22.1082L102.486 21.7977L102.483 21.8043L103.209 22.1082ZM104.417 19.2408L103.69 18.9396L103.69 18.9409L104.417 19.2408ZM105.611 14.7693L105.185 14.1084L104.451 14.5797L104.996 15.2602L105.611 14.7693ZM106.009 14.5138L106.671 14.0889L106.245 13.428L105.583 13.8529L106.009 14.5138ZM113.784 14.67L114.45 14.2504L114.021 13.5728L113.351 14.014L113.784 14.67ZM113.955 14.9397L114.395 15.5914L115.028 15.1652L114.62 14.5201L113.955 14.9397ZM112.945 16.1746L113.67 16.4806L113.674 16.471L112.945 16.1746ZM105.796 33.0667L106.517 33.3792L106.52 33.3726L105.796 33.0667ZM105.938 38.7021L105.162 38.8304L105.162 38.8349L105.938 38.7021ZM104.659 38.9293L103.886 38.7775V38.7787L104.659 38.9293ZM97.5367 35.1676H96.7499V35.1943L96.7523 35.221L97.5367 35.1676ZM96.9631 38.2905C96.9631 38.3431 96.9498 38.2359 97.0615 38.1133C97.1174 38.0516 97.1827 38.0127 97.2393 37.992C97.2661 37.9823 97.2873 37.9776 97.3015 37.9754C97.3156 37.9732 97.3235 37.9732 97.3235 37.9732V39.5447C97.6075 39.5447 97.9592 39.4632 98.226 39.1703C98.4793 38.8916 98.5367 38.5502 98.5367 38.2905H96.9631ZM97.3235 37.9732C97.3503 37.9732 97.4006 37.9786 97.4596 38.0056C97.5202 38.0332 97.5643 38.0718 97.5918 38.1052L96.3738 39.1003C96.6177 39.3981 96.9608 39.5447 97.3235 39.5447V37.9732ZM97.5674 38.0772C97.6091 38.1234 97.6311 38.1649 97.6422 38.188C97.6524 38.211 97.6547 38.2226 97.6532 38.2167C97.6524 38.2113 97.6485 38.1951 97.6461 38.1656C97.6437 38.1363 97.6414 38.098 97.6414 38.0492H96.0678C96.0678 38.2218 96.0811 38.4004 96.1197 38.57C96.1575 38.7336 96.233 38.9453 96.3974 39.1284L97.5674 38.0772ZM97.6414 38.0492C97.6414 37.8495 97.6957 37.3733 97.8302 36.5586L96.2771 36.3033C96.1464 37.0973 96.0678 37.6999 96.0678 38.0492H97.6414ZM97.8294 36.5601C97.9671 35.7363 98.0395 34.9958 98.0395 34.3442H96.4659C96.4659 34.8851 96.4053 35.5358 96.2778 36.3018L97.8294 36.5601ZM98.0395 34.3442C98.0395 33.6037 97.8483 32.8373 97.5037 32.0547L96.063 32.6876C96.3439 33.3245 96.4659 33.8735 96.4659 34.3442H98.0395ZM97.5053 32.0579L90.4547 15.8614L89.0117 16.4879L96.0623 32.6844L97.5053 32.0579ZM90.4618 15.8781C90.1935 15.2207 89.7552 14.6861 89.1636 14.2879L88.2847 15.5914C88.6207 15.8177 88.8559 16.1066 89.0046 16.471L90.4618 15.8781ZM89.3729 15.3833L89.5578 15.1136L88.2595 14.2263L88.0746 14.496L89.3729 15.3833ZM88.4751 15.3259C89.0605 15.7109 89.7253 15.8958 90.4437 15.8958V14.3243C90.0062 14.3243 89.6482 14.2157 89.3422 14.014L88.4751 15.3259ZM90.4437 15.8958H95.4045V14.3243H90.4437V15.8958ZM95.4045 15.8958C96.1826 15.8958 96.8837 15.613 97.3172 14.9387L95.9938 14.0889C95.9159 14.2096 95.7837 14.3243 95.4045 14.3243V15.8958ZM96.2409 15.1814L96.6531 15.4369L97.4824 14.1017L97.0709 13.8462L96.2409 15.1814ZM96.4454 14.2889C96.2125 14.5901 96.0394 14.9582 96.0394 15.3797H97.613C97.613 15.4038 97.6012 15.3649 97.6902 15.2497L96.4454 14.2889ZM96.0394 15.3797C96.0394 15.5988 96.1032 15.8521 96.1669 16.0694C96.2385 16.313 96.3424 16.6122 96.473 16.9616L97.9466 16.4098C97.8223 16.0777 97.7334 15.8186 97.6768 15.6269C97.613 15.4088 97.613 15.3498 97.613 15.3797H96.0394ZM96.4769 16.9705C96.7444 17.6587 97.093 18.5206 97.5202 19.5548L98.975 18.9551C98.5493 17.9263 98.2063 17.0753 97.9435 16.4009L96.4769 16.9705ZM97.5218 19.5572C97.9482 20.5796 98.3463 21.5313 98.7161 22.412L100.167 21.8043C99.798 20.9249 99.3999 19.9743 98.9742 18.9527L97.5218 19.5572ZM98.7193 22.4186C99.0977 23.299 99.4959 24.2219 99.9137 25.1874L101.358 24.565C100.941 23.5999 100.543 22.6775 100.165 21.7977L98.7193 22.4186ZM99.9137 25.1874C100.332 26.1563 100.561 26.689 100.606 26.7966L102.058 26.1922C102.009 26.0728 101.774 25.5266 101.358 24.565L99.9137 25.1874ZM102.058 26.7966C102.103 26.689 102.333 26.1563 102.752 25.1874L101.306 24.565C100.891 25.5266 100.656 26.0728 100.606 26.1922L102.058 26.7966ZM102.752 25.1874C103.169 24.2199 103.564 23.2948 103.934 22.412L102.483 21.8043C102.114 22.6817 101.723 23.6019 101.306 24.565L102.752 25.1874ZM103.931 22.4186C104.312 21.5344 104.716 20.5751 105.144 19.5406L103.69 18.9409C103.265 19.9694 102.863 20.9216 102.486 21.7977L103.931 22.4186ZM105.144 19.5419C105.619 18.3986 105.978 17.5012 106.22 16.8538C106.341 16.5312 106.435 16.2618 106.501 16.051C106.534 15.946 106.562 15.8468 106.583 15.7578C106.6 15.6831 106.625 15.5627 106.625 15.4365H105.051C105.051 15.3742 105.062 15.3493 105.05 15.4018C105.041 15.4399 105.025 15.4995 104.998 15.5849C104.945 15.7551 104.862 15.9932 104.746 16.3045C104.514 16.9253 104.162 17.8022 103.69 18.9396L105.144 19.5419ZM106.625 15.4365C106.625 15.013 106.495 14.615 106.225 14.2785L104.996 15.2602C105.03 15.3022 105.051 15.349 105.051 15.4365H106.625ZM106.037 15.4302L106.435 15.1747L105.583 13.8529L105.185 14.1084L106.037 15.4302ZM105.347 14.9387C105.781 15.613 106.483 15.8958 107.26 15.8958V14.3243C106.882 14.3243 106.749 14.2096 106.671 14.0889L105.347 14.9387ZM107.26 15.8958H112.235V14.3243H107.26V15.8958ZM112.235 15.8958C112.96 15.8958 113.631 15.7124 114.218 15.3259L113.351 14.014C113.047 14.2142 112.685 14.3243 112.235 14.3243V15.8958ZM113.119 15.0895L113.29 15.3593L114.62 14.5201L114.45 14.2504L113.119 15.0895ZM113.515 14.2879C112.923 14.6861 112.485 15.2207 112.217 15.8781L113.674 16.471C113.823 16.1066 114.058 15.8177 114.395 15.5914L113.515 14.2879ZM112.221 15.8687L105.071 32.7608L106.52 33.3726L113.67 16.4806L112.221 15.8687ZM105.073 32.7543C104.958 33.0209 104.905 33.372 104.874 33.72C104.84 34.0935 104.824 34.5596 104.824 35.1108H106.398C106.398 34.5832 106.413 34.1692 106.441 33.8613C106.454 33.7076 106.471 33.5892 106.487 33.5017C106.505 33.4088 106.519 33.3757 106.517 33.3792L105.073 32.7543ZM104.824 35.1108C104.824 36.2412 104.938 37.4821 105.162 38.8304L106.714 38.5739C106.502 37.2914 106.398 36.138 106.398 35.1108H104.824ZM105.162 38.8349C105.388 40.1525 105.492 41.0817 105.492 41.6547H107.066C107.066 40.9407 106.942 39.9016 106.713 38.5694L105.162 38.8349ZM105.492 41.6547C105.492 42.0427 105.418 42.1921 105.392 42.2276C105.387 42.2341 105.386 42.2352 105.387 42.2338C105.389 42.2324 105.391 42.2318 105.389 42.2323C105.388 42.233 105.359 42.2459 105.284 42.2459V43.8174C105.819 43.8174 106.328 43.6181 106.668 43.1472C106.974 42.7237 107.066 42.1846 107.066 41.6547H105.492ZM105.284 42.2459C105.247 42.2459 105.223 42.2427 105.207 42.2397C105.192 42.2367 105.186 42.2338 105.186 42.2337C105.186 42.2337 105.188 42.2348 105.191 42.2368C105.193 42.2388 105.192 42.2383 105.188 42.2323C105.163 42.199 105.09 42.0526 105.09 41.6689H103.516C103.516 42.1937 103.607 42.7286 103.91 43.1495C104.247 43.6183 104.752 43.8174 105.284 43.8174V42.2459ZM105.09 41.6689C105.09 41.1327 105.196 40.2806 105.431 39.0799L103.886 38.7787C103.647 40.0005 103.516 40.9749 103.516 41.6689H105.09ZM105.431 39.081C105.675 37.8397 105.801 36.6856 105.801 35.6218H104.227C104.227 36.5643 104.116 37.6151 103.886 38.7775L105.431 39.081ZM105.801 35.6218C105.801 35.1046 105.771 34.6515 105.686 34.3061C105.644 34.1378 105.575 33.9288 105.439 33.7455C105.289 33.5408 105.022 33.3315 104.645 33.3315V34.9029C104.391 34.9029 104.231 34.7562 104.173 34.6768C104.129 34.619 104.137 34.598 104.158 34.6805C104.195 34.8367 104.227 35.136 104.227 35.6218H105.801ZM104.645 33.3315H97.7641V34.9029H104.645V33.3315ZM97.7641 33.3315C97.3652 33.3315 97.1181 33.5811 97.0048 33.7552C96.9002 33.9163 96.8514 34.09 96.8247 34.2137C96.7688 34.4732 96.7499 34.8039 96.7499 35.1676H98.3235C98.3235 34.831 98.3432 34.6365 98.3629 34.5458C98.3739 34.4944 98.3731 34.5368 98.3251 34.6104C98.2976 34.6521 98.2425 34.7248 98.1449 34.7891C98.0395 34.8587 97.9073 34.9029 97.7641 34.9029V33.3315ZM96.7523 35.221L96.9655 38.3439L98.5352 38.2371L98.3219 35.1142L96.7523 35.221ZM122.995 42.2225L122.209 42.1901L122.208 42.2063V42.2225H122.995ZM123.152 38.4466L123.938 38.4791L123.939 38.4629V38.4466H123.152ZM123.009 36.1328L122.249 36.3339L122.252 36.3443L122.255 36.3546L123.009 36.1328ZM122.74 35.2811L122.005 35.5632L122.74 35.2811ZM121.83 34.2591L121.393 34.9129L121.4 34.9175L121.408 34.922L121.83 34.2591ZM117.793 34.8979L117.193 34.3893L117.189 34.3941L117.793 34.8979ZM117.139 38.9861L117.911 38.8339L117.91 38.8319L117.139 38.9861ZM116.115 38.9719L115.344 38.8139L115.343 38.8234L116.115 38.9719ZM116.343 37.2969L115.557 37.2763L115.556 37.2866V37.2969H116.343ZM116.443 33.4926L117.229 33.5131L117.23 33.5028V33.4926H116.443ZM115.888 15.3939L115.318 14.852L114.782 15.4146L115.339 15.9566L115.888 15.3939ZM116.172 15.0958L116.715 14.5269L116.145 13.985L115.602 14.5539L116.172 15.0958ZM124.161 15.0958L124.731 14.5539L124.175 13.9709L123.605 14.5402L124.161 15.0958ZM124.445 15.3939L125.002 15.9495L125.545 15.4073L125.015 14.852L124.445 15.3939ZM123.735 35.9625L122.95 35.8947V35.8952L123.735 35.9625ZM123.635 38.7589V39.5447H124.469L124.421 38.7134L123.635 38.7589ZM123.621 38.7589V37.9732H122.64L122.853 38.9298L123.621 38.7589ZM123.781 42.255L123.938 38.4791L122.366 38.4142L122.209 42.1901L123.781 42.255ZM123.939 38.4466C123.939 37.8283 123.927 37.3125 123.902 36.9045C123.878 36.5161 123.84 36.1647 123.765 35.9111L122.255 36.3546C122.275 36.4228 122.308 36.6179 122.331 37.0007C122.353 37.364 122.365 37.8443 122.365 38.4466H123.939ZM123.77 35.9318C123.68 35.5894 123.581 35.2774 123.474 34.9991L122.005 35.5632C122.087 35.7769 122.169 36.0328 122.249 36.3339L123.77 35.9318ZM123.474 34.9991C123.349 34.6735 123.172 34.3743 122.926 34.1293L121.813 35.2405C121.872 35.2984 121.941 35.3966 122.005 35.5632L123.474 34.9991ZM122.926 34.1293C122.729 33.9318 122.502 33.755 122.253 33.5962L121.408 34.922C121.574 35.0282 121.708 35.1352 121.813 35.2405L122.926 34.1293ZM122.266 33.6054C121.673 33.2101 120.856 33.0759 119.954 33.0759V34.6474C120.757 34.6474 121.191 34.7782 121.393 34.9129L122.266 33.6054ZM119.954 33.0759C118.854 33.0759 117.92 33.5355 117.193 34.3893L118.392 35.4065C118.842 34.8786 119.348 34.6474 119.954 34.6474V33.0759ZM117.189 34.3941C116.484 35.2368 116.139 36.2469 116.139 37.382H117.713C117.713 36.5866 117.946 35.9406 118.396 35.4017L117.189 34.3941ZM116.139 37.382C116.139 37.8225 116.223 38.4197 116.367 39.1402L117.91 38.8319C117.771 38.1328 117.713 37.6607 117.713 37.382H116.139ZM116.367 39.1382C116.507 39.8477 116.566 40.3249 116.566 40.6043H118.139C118.139 40.1644 118.055 39.5629 117.911 38.8339L116.367 39.1382ZM116.566 40.6043C116.566 40.7308 116.554 40.8168 116.541 40.8709C116.529 40.9248 116.518 40.9321 116.529 40.9167C116.543 40.8962 116.572 40.8692 116.61 40.8515C116.643 40.8357 116.656 40.8406 116.627 40.8406V42.412C117.079 42.412 117.52 42.2379 117.813 41.825C118.071 41.4617 118.139 41.0139 118.139 40.6043H116.566ZM116.627 40.8406C116.596 40.8406 116.606 40.8353 116.637 40.8497C116.673 40.8661 116.703 40.8924 116.72 40.9153C116.732 40.9333 116.724 40.9302 116.712 40.8819C116.7 40.8332 116.689 40.7532 116.689 40.6327H115.115C115.115 41.0359 115.185 41.4805 115.447 41.8406C115.744 42.247 116.185 42.412 116.627 42.412V40.8406ZM116.689 40.6327C116.689 40.3418 116.748 39.8488 116.888 39.1202L115.343 38.8234C115.199 39.5712 115.115 40.1854 115.115 40.6327H116.689ZM116.887 39.1297C117.04 38.3801 117.13 37.7579 117.13 37.2969H115.556C115.556 37.5928 115.494 38.0874 115.344 38.8139L116.887 39.1297ZM117.13 37.3174L117.229 33.5131L115.656 33.472L115.557 37.2763L117.13 37.3174ZM117.23 33.4926V16.8134H115.656V33.4926H117.23ZM117.23 16.8134C117.23 16.0468 116.98 15.3597 116.437 14.8312L115.339 15.9566C115.535 16.1474 115.656 16.4065 115.656 16.8134H117.23ZM116.458 15.9357L116.743 15.6376L115.602 14.5539L115.318 14.852L116.458 15.9357ZM115.63 15.6647C116.174 16.1825 116.842 16.4493 117.594 16.4493V14.8779C117.246 14.8779 116.967 14.7662 116.715 14.5269L115.63 15.6647ZM117.594 16.4493H122.74V14.8779H117.594V16.4493ZM122.74 16.4493C123.503 16.4493 124.181 16.1869 124.718 15.6514L123.605 14.5402C123.383 14.7618 123.113 14.8779 122.74 14.8779V16.4493ZM123.592 15.6376L123.876 15.9357L125.015 14.852L124.731 14.5539L123.592 15.6376ZM123.889 14.8383C123.356 15.371 123.104 16.0519 123.104 16.8134H124.677C124.677 16.4203 124.796 16.1549 125.002 15.9495L123.889 14.8383ZM123.104 16.8134V33.4216H124.677V16.8134H123.104ZM123.104 33.4216C123.104 33.876 123.055 34.6924 122.95 35.8947L124.519 36.0303C124.622 34.8289 124.677 33.9514 124.677 33.4216H123.104ZM122.95 35.8952C122.846 37.118 122.809 38.0946 122.85 38.8044L124.421 38.7134C124.386 38.1173 124.415 37.2296 124.519 36.0298L122.95 35.8952ZM123.635 37.9732H123.621V39.5447H123.635V37.9732ZM122.853 38.9298C123.201 40.4871 123.36 41.6159 123.36 42.3503H124.934C124.934 41.4381 124.743 40.1725 124.389 38.588L122.853 38.9298ZM123.36 42.3503C123.36 42.533 123.351 42.6788 123.337 42.792C123.323 42.908 123.304 42.9714 123.294 42.9979C123.282 43.0273 123.294 42.9787 123.364 42.9179C123.448 42.8431 123.565 42.7995 123.677 42.7995V44.371C123.947 44.371 124.2 44.2759 124.402 44.0983C124.589 43.9345 124.698 43.7315 124.766 43.5552C124.895 43.2135 124.934 42.7891 124.934 42.3503H123.36ZM123.677 42.7995C123.702 42.7995 123.758 42.8078 123.816 42.8463C123.869 42.8816 123.88 42.9136 123.869 42.8932C123.858 42.8697 123.834 42.8084 123.814 42.6895C123.795 42.5728 123.782 42.419 123.782 42.2225H122.208C122.208 42.7169 122.267 43.2047 122.463 43.5959C122.566 43.8027 122.719 44.005 122.943 44.1538C123.172 44.3059 123.426 44.371 123.677 44.371V42.7995ZM135.718 29.234L135.01 28.8913L134.667 29.5959L135.372 29.9399L135.718 29.234ZM136.911 34.8411L137.468 35.3967L138.024 34.8411L137.468 34.2855L136.911 34.8411ZM136.627 35.125L136.071 35.6806L136.627 36.2362L137.184 35.6806L136.627 35.125ZM128.852 35.125L128.295 35.6806L128.852 36.2362L129.409 35.6806L128.852 35.125ZM128.567 34.8411L128.011 34.2855L127.455 34.8411L128.011 35.3967L128.567 34.8411ZM128.567 15.3939L127.998 14.852L127.468 15.4073L128.011 15.9495L128.567 15.3939ZM128.852 15.0958L129.409 14.5402L128.838 13.9709L128.282 14.5539L128.852 15.0958ZM136.627 15.0958L137.197 14.5539L136.641 13.9709L136.071 14.5402L136.627 15.0958ZM136.911 15.3939L137.468 15.9495L138.011 15.4073L137.481 14.852L136.911 15.3939ZM136.016 22.8605L135.295 22.5463L134.97 23.289L135.724 23.59L136.016 22.8605ZM136.229 22.9456L135.937 23.6752L136.652 23.9606L136.953 23.2536L136.229 22.9456ZM137.182 21.5829L137.725 22.1513L137.726 22.1504L137.182 21.5829ZM142.541 16.4586L141.997 15.8907V15.891L142.541 16.4586ZM142.938 15.8907L142.192 15.6423L142.186 15.6612L142.181 15.6805L142.938 15.8907ZM142.896 15.2094L142.622 14.4728L141.93 14.7294L142.142 15.4352L142.896 15.2094ZM143.394 15.0249L144.119 14.7192L143.826 14.0265L143.119 14.2883L143.394 15.0249ZM153.301 15.3513L154.042 15.087L153.775 14.3408L153.031 14.6136L153.301 15.3513ZM153.372 15.55L153.648 16.2857L154.374 16.0142L154.113 15.2858L153.372 15.55ZM151.936 16.416L152.453 17.0089L152.459 17.0032L151.936 16.416ZM146.165 21.4268L145.649 20.8339L145.643 20.8395L145.636 20.8454L146.165 21.4268ZM144.758 21.8952L144.857 21.1158L144.078 21.0168L143.978 21.7947L144.758 21.8952ZM144.702 22.3353L143.921 22.2347L143.816 23.0425L144.628 23.1176L144.702 22.3353ZM145.952 23.1302L145.297 23.566L145.303 23.5737L145.308 23.5812L145.952 23.1302ZM153.315 33.6204L153.966 33.1785L153.963 33.1739L153.96 33.1694L153.315 33.6204ZM154.538 34.7275L155.223 35.1127L155.617 34.4152L154.911 34.0358L154.538 34.7275ZM154.41 34.9547L154.042 35.6491L154.72 36.0074L155.096 35.3399L154.41 34.9547ZM144.758 35.2102L144.389 35.904L145.082 36.2721L145.452 35.5799L144.758 35.2102ZM144.303 34.9689L143.595 34.6273L143.266 35.3081L143.934 35.6627L144.303 34.9689ZM144.46 34.2875L143.682 34.404L143.683 34.41L144.46 34.2875ZM144.161 33.6061L144.823 33.1812L144.818 33.1732L144.813 33.1654L144.161 33.6061ZM140.096 27.6159L139.436 28.0427L139.439 28.0497L139.444 28.0566L140.096 27.6159ZM139.726 26.1111L140.506 26.2104L140.608 25.4184L139.813 25.3302L139.726 26.1111ZM139.343 26.0685L139.429 25.2876L138.661 25.2025L138.562 25.9676L139.343 26.0685ZM138.561 27.3887L138.064 26.7789L138.056 26.7857L138.048 26.7926L138.561 27.3887ZM137.253 28.5101L137.747 29.1214L137.756 29.1139L137.765 29.1062L137.253 28.5101ZM136.613 28.865L136.451 28.0961L136.443 28.098L136.613 28.865ZM135.945 28.7656L136.224 28.0309L135.551 27.7761L135.237 28.4229L135.945 28.7656ZM135.372 29.9399C135.45 29.9782 135.485 30.0176 135.508 30.0592C135.535 30.1091 135.571 30.2098 135.571 30.3981H137.144C137.144 30.0185 137.073 29.6413 136.887 29.3032C136.697 28.9568 136.411 28.6982 136.063 28.5282L135.372 29.9399ZM135.571 30.3981V33.4216H137.144V30.3981H135.571ZM135.571 33.4216C135.571 34.183 135.822 34.864 136.355 35.3967L137.468 34.2855C137.262 34.0801 137.144 33.8147 137.144 33.4216H135.571ZM136.355 34.2855L136.071 34.5694L137.184 35.6806L137.468 35.3967L136.355 34.2855ZM137.184 34.5694C136.65 34.0367 135.968 33.7857 135.206 33.7857V35.3571C135.6 35.3571 135.865 35.4751 136.071 35.6806L137.184 34.5694ZM135.206 33.7857H130.273V35.3571H135.206V33.7857ZM130.273 33.7857C129.511 33.7857 128.829 34.0367 128.295 34.5694L129.409 35.6806C129.614 35.4751 129.88 35.3571 130.273 35.3571V33.7857ZM129.409 34.5694L129.124 34.2855L128.011 35.3967L128.295 35.6806L129.409 34.5694ZM129.124 35.3967C129.657 34.864 129.909 34.183 129.909 33.4216H128.335C128.335 33.8147 128.217 34.0801 128.011 34.2855L129.124 35.3967ZM129.909 33.4216V16.8134H128.335V33.4216H129.909ZM129.909 16.8134C129.909 16.0519 129.657 15.371 129.124 14.8383L128.011 15.9495C128.217 16.1549 128.335 16.4203 128.335 16.8134H129.909ZM129.137 15.9357L129.422 15.6376L128.282 14.5539L127.998 14.852L129.137 15.9357ZM128.295 15.6514C128.832 16.1869 129.51 16.4493 130.273 16.4493V14.8779C129.899 14.8779 129.63 14.7618 129.409 14.5402L128.295 15.6514ZM130.273 16.4493H135.206V14.8779H130.273V16.4493ZM135.206 16.4493C135.969 16.4493 136.647 16.1869 137.184 15.6514L136.071 14.5402C135.849 14.7618 135.58 14.8779 135.206 14.8779V16.4493ZM136.058 15.6376L136.342 15.9357L137.481 14.852L137.197 14.5539L136.058 15.6376ZM136.355 14.8383C135.822 15.371 135.571 16.0519 135.571 16.8134H137.144C137.144 16.4203 137.262 16.1549 137.468 15.9495L136.355 14.8383ZM135.571 16.8134V21.2281H137.144V16.8134H135.571ZM135.571 21.2281C135.571 21.6877 135.479 22.1249 135.295 22.5463L136.738 23.1748C137.008 22.5551 137.144 21.904 137.144 21.2281H135.571ZM135.724 23.59L135.937 23.6752L136.521 22.2161L136.308 22.1309L135.724 23.59ZM136.953 23.2536C137.128 22.8443 137.383 22.4778 137.725 22.1513L136.638 21.0146C136.147 21.483 135.767 22.025 135.505 22.6378L136.953 23.2536ZM137.726 22.1504L143.085 17.026L141.997 15.891L136.638 21.0155L137.726 22.1504ZM143.085 17.0263C143.341 16.7809 143.594 16.4726 143.697 16.1011L142.181 15.6805C142.187 15.6578 142.189 15.6671 142.159 15.7098C142.13 15.7517 142.079 15.8122 141.997 15.8907L143.085 17.0263ZM143.685 16.1392C143.817 15.7444 143.754 15.331 143.65 14.9836L142.142 15.4352C142.173 15.5358 142.183 15.6029 142.185 15.6416C142.188 15.6803 142.181 15.6746 142.192 15.6423L143.685 16.1392ZM143.17 15.9459L143.668 15.7614L143.119 14.2883L142.622 14.4728L143.17 15.9459ZM142.668 15.3304C142.82 15.6898 143.071 15.9881 143.42 16.1866C143.757 16.3788 144.138 16.4493 144.517 16.4493V14.8779C144.326 14.8779 144.235 14.8419 144.199 14.8212C144.174 14.8067 144.146 14.7857 144.119 14.7192L142.668 15.3304ZM144.517 16.4493H151.652V14.8779H144.517V16.4493ZM151.652 16.4493C152.287 16.4493 152.929 16.3245 153.572 16.089L153.031 14.6136C152.537 14.7945 152.079 14.8779 151.652 14.8779V16.4493ZM152.56 15.6156L152.631 15.8143L154.113 15.2858L154.042 15.087L152.56 15.6156ZM153.096 14.8144C152.474 15.0473 151.912 15.3864 151.414 15.8287L152.459 17.0032C152.814 16.6884 153.209 16.4503 153.648 16.2857L153.096 14.8144ZM151.42 15.823L145.649 20.8339L146.682 22.0198L152.453 17.0089L151.42 15.823ZM145.636 20.8454C145.376 21.082 145.132 21.1507 144.857 21.1158L144.659 22.6747C145.427 22.7722 146.121 22.5287 146.695 22.0081L145.636 20.8454ZM143.978 21.7947L143.921 22.2347L145.481 22.4358L145.539 21.9958L143.978 21.7947ZM144.628 23.1176C144.872 23.14 145.088 23.2517 145.297 23.566L146.607 22.6944C146.172 22.0434 145.554 21.6251 144.774 21.5529L144.628 23.1176ZM145.308 23.5812L152.671 34.0713L153.96 33.1694L146.596 22.6792L145.308 23.5812ZM152.665 34.0622C153.057 34.6371 153.558 35.093 154.164 35.4193L154.911 34.0358C154.532 33.8321 154.219 33.5499 153.966 33.1785L152.665 34.0622ZM153.852 34.3424L153.724 34.5694L155.096 35.3399L155.223 35.1127L153.852 34.3424ZM154.778 34.2602C154.175 33.9413 153.517 33.7857 152.818 33.7857V35.3571C153.275 35.3571 153.678 35.457 154.042 35.6491L154.778 34.2602ZM152.818 33.7857H145.952V35.3571H152.818V33.7857ZM145.952 33.7857C145.155 33.7857 144.455 34.1083 144.064 34.8404L145.452 35.5799C145.516 35.4603 145.613 35.3571 145.952 35.3571V33.7857ZM145.127 34.5163L144.672 34.2749L143.934 35.6627L144.389 35.904L145.127 34.5163ZM145.012 35.3104C145.172 34.9794 145.302 34.5774 145.237 34.1649L143.683 34.41C143.677 34.3774 143.684 34.3752 143.675 34.4172C143.665 34.459 143.643 34.5278 143.595 34.6273L145.012 35.3104ZM145.237 34.1709C145.185 33.8232 145.019 33.4868 144.823 33.1812L143.499 34.031C143.644 34.2555 143.677 34.3732 143.682 34.404L145.237 34.1709ZM144.813 33.1654L140.747 27.175L139.444 28.0566L143.51 34.0469L144.813 33.1654ZM140.757 27.189C140.534 26.8461 140.466 26.5288 140.506 26.2104L138.945 26.012C138.853 26.7344 139.032 27.4203 139.436 28.0427L140.757 27.189ZM139.813 25.3302L139.429 25.2876L139.255 26.8495L139.639 26.8921L139.813 25.3302ZM138.562 25.9676C138.525 26.2514 138.386 26.5182 138.064 26.7789L139.057 27.9985C139.645 27.5211 140.027 26.9078 140.122 26.1696L138.562 25.9676ZM138.048 26.7926L136.74 27.914L137.765 29.1062L139.073 27.9848L138.048 26.7926ZM136.759 27.8989C136.66 27.9778 136.583 28.0292 136.526 28.061C136.467 28.0936 136.443 28.0977 136.451 28.0962L136.775 29.6339C137.135 29.5581 137.465 29.3494 137.747 29.1214L136.759 27.8989ZM136.443 28.098C136.474 28.091 136.476 28.0977 136.434 28.0914C136.392 28.0852 136.324 28.0687 136.224 28.0309L135.666 29.5002C135.997 29.6256 136.393 29.7188 136.784 29.632L136.443 28.098ZM135.237 28.4229L135.01 28.8913L136.425 29.5768L136.653 29.1084L135.237 28.4229Z" fill="white"/>
<path d="M27.1693 39.6049L27.5074 36.4283C27.5074 35.1393 26.9798 34.1571 25.9245 33.4819C24.8796 32.7964 23.7783 32.4946 22.6206 32.5764C21.4629 32.6481 20.6536 33.0369 20.1926 33.7427C19.957 34.0804 19.8391 34.4793 19.8391 34.9398L19.7623 39.0524C19.7623 39.6152 19.8494 40.449 20.0235 41.5538C20.1977 42.669 20.2848 43.5079 20.2848 44.0706C20.2848 45.063 20.0031 45.5592 19.4396 45.5592C18.8761 45.5592 18.5944 45.0783 18.5944 44.1166C18.5944 43.4823 18.6866 42.5718 18.871 41.3851C19.0555 40.1983 19.1579 39.298 19.1784 38.6842C19.2091 38.0703 19.2245 36.7608 19.2245 34.7556C19.2245 34.2236 19.0606 33.6097 18.7327 32.914C18.4048 32.2184 17.8875 31.2618 17.1806 30.0444C16.4737 28.8269 15.8949 27.7527 15.4441 26.8217L14.9831 26.5608C14.7372 27.011 14.3018 27.2361 13.6769 27.2361L12.386 27.2821C11.505 27.2821 10.8442 27.0672 10.4037 26.6375L10.081 26.9445C10.1117 27.323 10.1271 28.1312 10.1271 29.3691L10.1117 33.1289C10.1117 34.2543 10.1322 35.0829 10.1732 35.6149L10.4651 37.8708C10.4651 38.2903 10.3217 38.5 10.0348 38.5C9.74798 38.5 9.60454 38.3056 9.60454 37.9168L9.85042 36.0139C9.85042 35.5536 9.71218 35.1852 9.43554 34.9091C9.16913 34.643 8.8157 34.5101 8.37517 34.5101C7.94494 34.5101 7.56073 34.6993 7.22265 35.0778C6.89481 35.4666 6.7309 35.9679 6.7309 36.5818C6.7309 37.1956 6.84359 38.0243 7.06898 39.0678C7.29436 40.1216 7.40705 40.8786 7.40705 41.339C7.40705 42.3007 7.06385 42.7815 6.37745 42.7815C5.69105 42.7815 5.34785 42.311 5.34785 41.3697C5.34785 40.9297 5.44517 40.1625 5.63983 39.0678C5.84472 37.9731 5.94717 37.1036 5.94717 36.459C5.94717 35.8144 5.79862 35.2824 5.50152 34.863C5.20442 34.4538 4.86634 34.2491 4.48728 34.2491C4.10822 34.2491 3.78551 34.377 3.51915 34.6328C3.25278 34.8988 3.1196 35.2262 3.1196 35.6149L3.53452 39.2519C3.53452 39.876 3.30401 40.188 2.84299 40.188C2.38197 40.188 2.15147 39.8709 2.15147 39.2366C2.15147 38.8683 2.24879 38.2237 2.44344 37.303C2.63809 36.3925 2.73029 35.6815 2.72005 35.1699C2.70981 34.6584 2.70468 28.0392 2.70468 15.3122C2.70468 14.6779 2.51003 14.1715 2.12073 13.793L2.42808 13.4861C2.82762 13.8749 3.33474 14.0692 3.94943 14.0692H17.7184C19.8699 14.0692 21.3144 14.1357 22.052 14.2687C22.7999 14.3915 23.4505 14.5245 24.0037 14.6677C24.5672 14.811 25.0384 14.9899 25.4175 15.2048C25.8068 15.4094 26.1961 15.6703 26.5854 15.9875C26.9849 16.2944 27.3025 16.6473 27.5381 17.0463C28.0811 17.9569 28.3526 18.9236 28.3526 19.9467C28.3526 20.9698 28.2706 21.8087 28.1067 22.4634C27.953 23.108 27.6918 23.7167 27.323 24.2897C26.5239 25.5275 25.1204 26.1465 23.1124 26.1465L22.9895 26.4995C23.6349 26.7552 24.0651 27.1082 24.2803 27.5583C25.1818 29.5226 25.8478 30.7708 26.278 31.3027C26.7083 31.8245 27.1078 32.244 27.4767 32.5611C27.8455 32.8783 28.3731 33.2005 29.0595 33.5279C29.7459 33.8553 30.1608 34.0701 30.3042 34.1724C30.4476 34.2645 30.5194 34.3412 30.5194 34.4027C30.5194 35.4257 30.6576 36.7403 30.9343 38.3466C31.2109 39.9528 31.3492 40.9861 31.3492 41.4464C31.3492 41.9068 31.3287 42.2393 31.2877 42.4439C31.257 42.6485 31.1802 42.8481 31.0573 43.0424C30.9343 43.2471 30.755 43.3494 30.5194 43.3494C30.2837 43.3494 30.1044 43.1805 29.9815 42.8429C29.8688 42.5053 29.8125 42.091 29.8125 41.5999C29.8125 41.1088 29.8791 40.229 30.0122 38.9604C30.1454 37.702 30.212 36.7505 30.212 36.106C30.212 34.8272 29.7971 34.1878 28.9673 34.1878C28.5575 34.1878 28.2501 34.2594 28.0452 34.4027C27.8506 34.5458 27.7532 34.8374 27.7532 35.2773C27.7532 35.7275 27.8454 36.4385 28.0299 37.4105C28.2143 38.3824 28.3065 39.1138 28.3065 39.6049C28.3065 40.1062 28.117 40.3569 27.7379 40.3569C27.3588 40.3569 27.1693 40.1062 27.1693 39.6049ZM16.9347 19.164L13.3081 19.2715C11.8225 19.2715 10.8545 19.0515 10.4037 18.6116L10.081 18.9032C10.4907 19.3022 10.6957 19.8137 10.6957 20.4378V21.466C10.6957 22.0798 10.4907 22.5913 10.081 23.0005L10.4037 23.3075C10.8442 22.8573 11.756 22.6323 13.139 22.6323L17.0269 22.7704C18.0616 22.7704 18.8608 22.6374 19.4242 22.3714C19.998 22.0952 20.2848 21.5939 20.2848 20.8675C20.2848 20.4071 20.126 20.049 19.8084 19.7932C19.4908 19.5273 19.1067 19.3584 18.6558 19.2869C18.2051 19.205 17.6314 19.164 16.9347 19.164ZM58.3648 17.2305L58.5031 25.0723C58.5031 27.8038 58.165 29.804 57.4888 31.0726C56.8537 32.2797 55.947 33.1852 54.7689 33.7888C53.4267 34.4845 51.6442 34.9346 49.4211 35.1393V38.0089L49.5747 39.5896C49.5747 39.9374 49.4774 40.1113 49.2827 40.1113C49.0881 40.1113 48.9908 39.7737 48.9908 39.0985L49.083 36.5971C49.083 35.4922 48.7398 34.9398 48.0534 34.9398C47.5206 34.9398 47.2543 35.3745 47.2543 36.2441C47.2543 36.2441 47.2799 36.6892 47.3311 37.5792C47.3311 37.8862 47.3926 38.3312 47.5155 38.9143C47.6487 39.5078 47.7153 39.9272 47.7153 40.1727C47.7153 40.4182 47.664 40.6228 47.5616 40.7866C47.4592 40.9503 47.3106 41.0321 47.116 41.0321C46.9213 41.0321 46.7728 40.9451 46.6703 40.7712C46.5781 40.6075 46.532 40.408 46.532 40.1727C46.532 39.9374 46.5986 39.5486 46.7318 39.0064C46.8752 38.4744 46.947 38.1317 46.947 37.9782C46.947 37.8248 46.947 37.6662 46.947 37.5025C46.947 37.3491 46.9418 37.1905 46.9315 37.0268C46.9213 36.8631 46.8957 36.6584 46.8547 36.413C46.7728 35.9014 46.5269 35.6457 46.1171 35.6457C45.359 35.6457 44.98 36.3925 44.98 37.8862V38.5921C44.98 38.9706 45.0722 39.5231 45.2565 40.2495C45.4409 40.9758 45.5332 41.4976 45.5332 41.8148C45.5332 42.6025 45.277 42.9964 44.7648 42.9964C44.5087 42.9964 44.3038 42.8889 44.1501 42.6741C44.0067 42.4593 43.9349 42.183 43.9349 41.8454C43.9349 41.5078 44.0169 40.9349 44.1808 40.1267C44.355 39.3185 44.4421 38.7046 44.4421 38.2852V35.2313C41.5326 35.0983 39.3504 34.6737 37.8957 33.9576C35.3549 32.7299 34.0487 30.3973 33.977 26.9598C33.9565 26.0084 33.9462 24.5914 33.9462 22.709L33.977 15.6191C33.977 15.0156 33.7772 14.5091 33.3777 14.0999L33.7004 13.793C34.0794 14.1818 34.5865 14.3761 35.2217 14.3761H40.6617C41.2867 14.3761 41.7938 14.1818 42.1831 13.793L42.5058 14.0999C42.1165 14.4989 41.9218 15.0053 41.9218 15.6191L41.9526 23.507C41.9526 25.0314 41.9936 25.9981 42.0756 26.4074C42.1575 26.8166 42.2446 27.1951 42.3368 27.543C42.4392 27.8806 42.557 28.1517 42.6902 28.3563C42.8336 28.561 43.0129 28.7809 43.2281 29.0162C43.4432 29.2412 43.689 29.4152 43.9657 29.538C44.6111 29.8244 45.2412 29.9676 45.8558 29.9676C46.4808 29.9676 46.9623 29.9421 47.3004 29.8909C47.6487 29.8295 47.9509 29.7375 48.207 29.6147C48.4734 29.4817 48.7091 29.3436 48.914 29.2004C49.1291 29.0469 49.3084 28.8576 49.4518 28.6325C49.6055 28.3972 49.7386 28.1773 49.8514 27.9727C49.964 27.7578 50.0511 27.4918 50.1126 27.1746C50.1843 26.8575 50.2407 26.5813 50.2816 26.3459C50.3226 26.1005 50.3533 25.7935 50.3738 25.4252C50.4046 24.8625 50.4199 24.2231 50.4199 23.507L50.4507 15.6191C50.4507 14.995 50.2611 14.4887 49.882 14.0999L50.174 13.793C50.5633 14.1818 51.0756 14.3761 51.7108 14.3761H57.1508C57.7962 14.3761 58.3085 14.1818 58.6875 13.793L58.9949 14.0999C58.5748 14.5296 58.3648 15.5731 58.3648 17.2305ZM49.7898 43.0884C49.7898 43.5693 49.6208 43.8097 49.2827 43.8097C48.9446 43.8097 48.7756 43.5591 48.7756 43.0578C48.7756 42.5667 48.8473 42.1472 48.9908 41.7994C49.1444 41.4618 49.2366 41.293 49.2674 41.293C49.2981 41.293 49.3545 41.3851 49.4364 41.5692C49.672 42.1012 49.7898 42.6076 49.7898 43.0884ZM62.1758 18.1052L62.2527 16.1409C62.2527 15.0156 62.0324 14.238 61.5919 13.8083L61.8993 13.5014C62.309 13.9004 62.8161 14.0999 63.4206 14.0999H83.5978C84.2225 14.0999 84.7347 13.9004 85.1344 13.5014L85.442 13.8083C85.0526 14.1971 84.8582 14.7087 84.8582 15.3429L84.7811 17.3072C84.7811 18.4121 85.0014 19.1846 85.442 19.6245L85.1344 19.9467C84.6733 19.4761 83.9259 19.2408 82.8912 19.2408L79.4946 19.4556C78.419 19.4556 77.6455 19.2203 77.1742 18.7497L76.8516 19.0566C77.2511 19.4454 77.4509 19.9569 77.4509 20.5912V33.3284C77.4509 34.3924 77.5431 35.9782 77.7275 38.0857C77.9222 40.1931 78.0195 41.5795 78.0195 42.2444C78.0195 43.4107 77.8094 43.9939 77.3894 43.9939C76.9694 43.9939 76.7594 43.5795 76.7594 42.7509C76.7594 41.9222 76.8259 40.7968 76.9591 39.3747C77.1026 37.9629 77.1742 36.8989 77.1742 36.1828C77.1742 35.0676 76.954 34.5101 76.5135 34.5101C76.2984 34.5101 76.1293 34.6379 76.0064 34.8937C75.8834 35.1495 75.822 35.4001 75.822 35.6457L76.1754 38.8529C76.1754 39.5896 75.9654 39.9579 75.5453 39.9579C75.3302 39.9579 75.1714 39.8505 75.069 39.6356C74.9665 39.4208 74.9152 39.1701 74.9152 38.8837C74.9152 38.5972 75.0075 38.1266 75.1919 37.4718C75.3763 36.8273 75.4685 36.3004 75.4685 35.8912C75.4685 35.482 75.2892 35.1699 74.9307 34.9551C74.5824 34.7402 74.1367 34.6328 73.5937 34.6328C73.061 34.6328 72.5026 34.7402 71.9186 34.9551C71.345 35.1699 70.8379 35.5024 70.3974 35.9526C69.9568 36.413 69.7365 36.8631 69.7365 37.303C69.7365 37.7532 69.8031 38.2954 69.9363 38.9297C70.0797 39.564 70.1515 40.0908 70.1515 40.5103C70.1515 40.94 69.9619 41.1549 69.5829 41.1549C69.1526 41.1549 68.9374 40.9246 68.9374 40.4643C68.9374 40.0142 69.0194 39.4412 69.1833 38.7455C69.3472 38.0499 69.4292 37.5281 69.4292 37.1802V33.1903C69.4497 27.5839 69.4599 23.3842 69.4599 20.5912C69.4599 19.9467 69.6545 19.4352 70.0438 19.0566L69.7365 18.7497C69.2858 19.2101 68.5379 19.4403 67.4929 19.4403L64.1889 19.2408C63.1338 19.2408 62.3705 19.4761 61.8993 19.9467L61.5919 19.6245C61.9812 19.2357 62.1758 18.7292 62.1758 18.1052ZM75.4224 42.2751C75.6683 43.4005 75.7912 44.3775 75.7912 45.2062C75.7912 45.5643 75.6632 45.7433 75.407 45.7433C75.1509 45.7433 75.0229 45.5796 75.0229 45.2523C75.0229 44.3315 75.156 43.3391 75.4224 42.2751Z" fill="white"/>
</g>
<defs>
<clipPath id="clip0_48_5">
<rect width="155" height="55" fill="white"/>
</clipPath>
</defs>
</svg>
