<svg width="47" height="47" viewBox="0 0 47 47" fill="none" xmlns="http://www.w3.org/2000/svg">
<path d="M21.8587 39.4506C20.4083 38.2866 6.93986 25.1891 6.78931 25.0459C6.19447 24.451 5.81993 23.8341 5.71712 23.2687C5.61064 22.6812 5.79056 22.1671 6.2679 21.6898C6.7122 21.2455 7.25564 21.0105 7.83947 21.0105C8.55181 21.0105 9.28251 21.3483 9.89204 21.9615L15.9984 27.8291C16.1049 27.9319 16.2444 27.9834 16.3802 27.9834C16.4884 27.9836 16.5942 27.9519 16.6844 27.8921C16.7745 27.8324 16.845 27.7474 16.887 27.6477C16.929 27.5481 16.9406 27.4382 16.9203 27.332C16.9001 27.2258 16.8489 27.1279 16.7731 27.0507L7.02431 16.9824C6.04759 16.0057 5.58861 14.5112 6.74892 13.3509C7.19322 12.9066 7.73665 12.6716 8.32048 12.6716C9.03283 12.6716 9.76353 13.0094 10.3731 13.6227L20.3459 23.3458C20.4524 23.4486 20.5919 23.5037 20.7314 23.5037C20.8709 23.5037 21.0142 23.4486 21.1206 23.3421C21.3336 23.1291 21.3373 22.784 21.1243 22.5673L9.14665 10.2886C8.5922 9.73414 8.25806 9.06953 8.19931 8.42328C8.14423 7.76601 8.37556 7.15648 8.87126 6.66078C9.31556 6.21648 9.859 5.98148 10.4428 5.98148C11.1552 5.98148 11.8859 6.31929 12.4954 6.92882L24.7117 18.8404C24.8182 18.9432 24.9577 18.9983 25.0973 18.9983C25.2368 18.9983 25.38 18.9432 25.4865 18.8367C25.6995 18.6237 25.7031 18.2786 25.4902 18.0619L16.6189 8.94468C16.0608 8.38656 15.7267 7.72562 15.6716 7.07937C15.6165 6.4221 15.8478 5.81257 16.3435 5.31687C16.7878 4.87257 17.3313 4.63757 17.9151 4.63757C18.6274 4.63757 19.3581 4.97539 19.9677 5.58859C23.221 8.78312 31.714 17.1366 32.0004 17.4451C33.091 18.1978 33.3113 17.0595 33.3663 16.3215C33.4288 15.4623 32.4447 12.4623 33.0175 9.76351C33.9795 6.17609 36.7518 6.76359 36.8142 6.79296C38.3344 7.50531 38.0443 8.57015 37.5045 10.7109L37.4495 11.1331C36.884 13.9311 40.7688 22.2222 41.0552 22.8427C42.5791 26.1768 44.3342 32.9367 38.5217 38.7493C32.151 45.12 24.2638 41.8557 21.8587 39.4506Z" fill="url(#paint0_radial_8_35)"/>
<path d="M30.0323 43.027C26.1254 43.027 22.8023 41.158 21.4915 39.8619C20.3128 38.8998 12.8736 31.7177 6.815 25.839C6.56898 25.6003 6.42578 25.4644 6.41109 25.4461C5.72445 24.7594 5.29851 24.0434 5.17734 23.3678C5.03781 22.6004 5.27648 21.9064 5.87867 21.3005C6.42945 20.7498 7.10508 20.4597 7.83945 20.4597C8.70234 20.4597 9.5689 20.8562 10.2812 21.5723L16.3802 27.4326L6.62773 17.3643C5.50414 16.2407 4.93867 14.3791 6.35969 12.9617C6.91047 12.4109 7.58609 12.1209 8.32047 12.1209C9.18336 12.1209 10.0499 12.5174 10.7623 13.2334L20.7277 22.9492L8.75375 10.6741C8.11484 10.0352 7.72195 9.25312 7.65219 8.47468C7.58242 7.64484 7.86883 6.88476 8.48203 6.27156C9.03281 5.72078 9.70844 5.4307 10.4428 5.4307C11.302 5.4307 12.1686 5.82359 12.8846 6.5396L25.0973 18.4475L16.226 9.33023C15.5834 8.68765 15.1905 7.90554 15.1245 7.1271C15.0547 6.30093 15.3411 5.54085 15.9543 4.92765C16.5051 4.37687 17.1807 4.08679 17.9151 4.08679C18.778 4.08679 19.6445 4.48335 20.3569 5.19937L23.0043 7.79539C27.7227 12.4219 31.6662 16.2958 32.0885 16.7291C32.2941 16.8943 32.5622 16.9567 32.676 16.9016C32.7494 16.8649 32.8302 16.696 32.8155 16.3398C32.7935 15.7156 32.7054 14.9409 32.6136 14.122C32.43 12.477 32.2391 10.7733 32.4777 9.64968C32.9991 7.69992 34.0236 6.87375 34.7873 6.51757C35.8375 6.03289 36.8546 6.20179 37.0492 6.29359C38.9586 7.18953 38.5804 8.68765 38.059 10.7659L38.048 10.8173L37.9892 11.2469C37.6073 13.1269 39.5681 18.3227 41.5289 22.5563L41.5583 22.6151C42.8691 25.4791 45.2302 32.8266 38.9145 39.1422C36.0101 42.0393 32.867 43.027 30.0323 43.027ZM7.83945 21.5612C7.40617 21.5612 6.99492 21.7412 6.65711 22.079C6.30828 22.4278 6.18711 22.7656 6.26055 23.1695C6.34133 23.6138 6.66812 24.1426 7.17851 24.6566C7.18219 24.6603 7.32906 24.8035 7.58242 25.0459C16.182 33.392 21.374 38.3527 22.2038 39.021L22.2479 39.0614C24.2748 41.0883 31.8058 44.6867 38.1324 38.3601C43.9597 32.5328 41.7676 25.7288 40.5522 23.0704L40.5265 23.0153C39.2634 20.2908 36.392 13.6814 36.9023 11.045L36.9868 10.4942C37.5523 8.24703 37.5853 7.77703 36.6269 7.31437C36.3442 7.26296 34.3173 7.01695 33.5426 9.90671C33.348 10.8284 33.5352 12.5137 33.7005 14.0009C33.7959 14.8417 33.8841 15.6385 33.9061 16.3031C33.9428 17.3496 33.4471 17.7498 33.146 17.8967C32.5328 18.1941 31.8021 17.9408 31.3468 17.5589L31.2991 17.5148C31.0751 17.2725 25.7472 12.0474 22.2222 8.58851L19.5711 5.98515C18.6678 5.0782 17.5038 4.92765 16.7217 5.70976C16.3398 6.09164 16.1673 6.5396 16.2077 7.03531C16.2517 7.55304 16.5308 8.09281 16.9971 8.55914L25.8867 17.6764C26.0887 17.8842 26.2011 18.1629 26.1998 18.4527C26.1984 18.7424 26.0834 19.0201 25.8794 19.2259C25.4718 19.6335 24.7521 19.6409 24.3335 19.2369L12.1098 7.32171C11.2066 6.41843 10.0389 6.26789 9.26047 7.05C8.87859 7.43187 8.70601 7.87984 8.7464 8.37554C8.79414 8.89328 9.0732 9.43671 9.53586 9.8957L21.5172 22.1818C21.9395 22.6077 21.9358 23.3054 21.5098 23.7313C21.1023 24.1389 20.3826 24.1462 19.964 23.7423L9.9875 14.0155C9.08422 13.1049 7.91656 12.958 7.13812 13.7402C6.18711 14.6912 6.69383 15.8698 7.41351 16.5932L17.1697 26.6688C17.3711 26.8756 17.4829 27.1535 17.4809 27.4422C17.4788 27.7309 17.363 28.0071 17.1587 28.211C16.7474 28.6223 16.0351 28.6259 15.6165 28.2257L9.51015 22.358C8.99609 21.8403 8.40492 21.5612 7.83945 21.5612Z" fill="#EDA600"/>
<path d="M31.1228 17.0889C29.1069 21.2051 29.3676 26.9662 32.3933 31.5891C32.7348 32.2134 33.3186 31.9086 33.0212 31.266C29.3676 23.4486 33.1974 17.8159 33.1974 17.8159L31.1228 17.0889Z" fill="#EDA600"/>
<path d="M23.1952 1.65234C24.3041 1.36226 25.4865 1.38796 26.6358 1.65601C27.7777 1.9314 28.9197 2.51156 29.7679 3.4589C30.5977 4.3989 31.1081 5.54085 31.2807 6.73789C31.4423 7.9239 31.2917 9.14664 30.7299 10.1601C30.6638 9.02179 30.4655 7.97531 30.1314 7.0096C29.9588 6.52859 29.7569 6.0696 29.5108 5.63632C29.2685 5.20671 28.9821 4.78078 28.6773 4.43195C28.0568 3.71593 27.2159 3.15781 26.2723 2.72453C25.3249 2.27656 24.2931 1.94609 23.1952 1.65234Z" fill="#B0BEC5"/>
<path d="M23.5 5.13327C24.1132 4.74405 24.8806 4.66327 25.604 4.79179C26.3347 4.9203 27.0323 5.28382 27.5831 5.78687C28.1302 6.29726 28.5195 6.93984 28.7618 7.60812C28.8793 7.94226 28.938 8.29476 28.9931 8.63624C29.0115 8.98874 29.0115 9.34124 28.9564 9.69374C28.703 9.42569 28.5048 9.15765 28.3175 8.89694C28.1009 8.65093 27.932 8.39023 27.7373 8.15155C27.3555 7.67788 26.9846 7.24827 26.5844 6.8664C26.1731 6.49554 25.7398 6.16874 25.2368 5.88601C24.7374 5.59593 24.1756 5.35359 23.5 5.13327Z" fill="#90A4AE"/>
<path d="M2.5079 28.3983C3.02564 29.4117 3.5654 30.3517 4.19329 31.1815C4.81751 32.0114 5.53353 32.7164 6.36704 33.1754C6.77095 33.3993 7.25197 33.594 7.72197 33.7408C8.19564 33.8914 8.68767 33.9942 9.19439 34.064C10.2078 34.1888 11.2727 34.1668 12.3999 33.9942C11.526 34.7543 10.3584 35.1582 9.16868 35.2463C7.96431 35.3271 6.74157 35.0664 5.64736 34.4495C4.54579 33.8216 3.73798 32.8229 3.23126 31.7617C2.72454 30.6932 2.45282 29.5439 2.5079 28.3983Z" fill="#B0BEC5"/>
<path d="M5.97782 27.9687C6.33399 28.5855 6.68649 29.0812 7.07204 29.5145C7.45391 29.9478 7.86516 30.304 8.31313 30.6271C8.76844 30.9392 9.26782 31.2146 9.81126 31.49C10.083 31.6295 10.3731 31.7397 10.6595 31.9012C10.9569 32.0298 11.258 32.1656 11.5738 32.3602C11.2396 32.4851 10.8981 32.5585 10.5493 32.6136C10.2041 32.6283 9.84798 32.6466 9.49548 32.5989C8.79048 32.5034 8.08548 32.2574 7.4686 31.8278C6.86274 31.3908 6.35969 30.785 6.0843 30.0983C5.80524 29.4154 5.72446 28.6516 5.97782 27.9687Z" fill="#90A4AE"/>
<defs>
<radialGradient id="paint0_radial_8_35" cx="0" cy="0" r="1" gradientUnits="userSpaceOnUse" gradientTransform="translate(16.1733 13.9533) rotate(-45) scale(33.417)">
<stop offset="0.353" stop-color="#FFCA28" stop-opacity="0.71"/>
<stop offset="0.872" stop-color="#FFB300"/>
</radialGradient>
</defs>
</svg>
