<svg width="36" height="52" viewBox="0 0 36 52" fill="none" xmlns="http://www.w3.org/2000/svg">
<path d="M35.3337 10.2192L32.1147 47.8176L17.6452 52L3.21559 47.8235L0 10.2192H35.3337Z" fill="#E44D26"/>
<path d="M17.6669 48.8031L29.3589 45.4234L32.1098 13.2939H17.6669V48.8031Z" fill="#F16529"/>
<path d="M11.4093 22.5181H17.6669V17.906H6.57504L6.68093 19.1433L7.76811 31.8528H17.6669V27.2408H11.8135L11.4093 22.5181Z" fill="#EBEBEB"/>
<path d="M12.4062 34.1588H7.96576L8.58548 41.4003L17.6465 44.023L17.6669 44.0171V39.2187L17.6475 39.224L12.7211 37.8371L12.4062 34.1588Z" fill="#EBEBEB"/>
<path d="M3.28748 0H5.53539V2.31562H7.59171V0H9.83973V7.01228H7.59181V4.66416H5.53549V7.01228H3.28757V0H3.28748Z" fill="black"/>
<path d="M12.7958 2.32537H10.8168V0H17.0238V2.32537H15.0439V7.01228H12.7959V2.32537H12.7958Z" fill="black"/>
<path d="M18.0089 0H20.3528L21.7947 2.46391L23.2351 0H25.5799V7.01228H23.3413V3.53661L21.7947 6.02987H21.756L20.2084 3.53661V7.01228H18.0089V0Z" fill="black"/>
<path d="M26.6987 0H28.9473V4.69442H32.1085V7.01228H26.6987V0Z" fill="black"/>
<path d="M17.6516 31.8528H23.0985L22.5851 37.8342L17.6516 39.2226V44.0208L26.7198 41.4004L26.7864 40.6212L27.8258 28.4793L27.9337 27.2408H17.6516V31.8528Z" fill="white"/>
<path d="M17.6516 22.5068V22.5181H28.3362L28.425 21.4814L28.6265 19.1433L28.7323 17.906H17.6516V22.5068Z" fill="white"/>
</svg>
