<svg width="22" height="22" viewBox="0 0 22 22" fill="none" xmlns="http://www.w3.org/2000/svg">
<path d="M16.8818 21.6C16.6193 21.6 16.4055 21.387 16.4055 21.1245V13.8975C16.4055 11.2845 15.0645 11.2845 14.559 11.2845C13.1505 11.2845 12.4373 12.1635 12.4373 13.8975V21.1252C12.4373 21.3877 12.2243 21.6007 11.9618 21.6007H7.87501C7.61251 21.6007 7.39951 21.3877 7.39951 21.1252V7.35749C7.39951 7.09499 7.61251 6.88199 7.87501 6.88199H11.9625C12.225 6.88199 12.438 7.09499 12.438 7.35749V7.87049L12.684 7.66724C13.6515 6.86699 14.8058 6.46124 16.1145 6.46124C17.7323 6.46124 19.0943 6.97799 20.0528 7.95674C21.0653 8.99024 21.6 10.5292 21.6 12.4065V21.1252C21.6 21.3877 21.3863 21.6007 21.1238 21.6007H16.8818V21.6ZM14.5598 10.332C15.6053 10.332 17.3588 10.7955 17.3588 13.8975V20.649H20.6475V12.4065C20.6475 9.23324 18.9953 7.41374 16.1145 7.41374C13.542 7.41374 12.4275 9.35624 12.381 9.43874C12.297 9.59099 12.138 9.68549 11.9648 9.68549C11.9258 9.68549 11.886 9.67949 11.8455 9.66974C11.634 9.61649 11.4863 9.42824 11.4863 9.21224V7.83449H8.35126V20.6497H11.4863V13.8975C11.4863 11.6647 12.6353 10.332 14.5598 10.332Z" fill="#323BAC"/>
<path d="M0.885003 21.6C0.622503 21.6 0.408752 21.387 0.408752 21.1245V7.35749C0.408752 7.09499 0.622503 6.88199 0.885003 6.88199H5.14875C5.41125 6.88199 5.62425 7.09499 5.62425 7.35749V21.1245C5.62425 21.387 5.41125 21.6 5.14875 21.6H0.885003ZM1.36125 20.649H4.6725V7.83374H1.36125V20.649Z" fill="#323BAC"/>
<path d="M2.99775 6.02925C1.34475 6.02925 0 4.677 0 3.015C0 1.35225 1.34475 0 2.99775 0C4.6485 0 5.9925 1.353 5.9925 3.01575C5.9925 4.677 4.6485 6.02925 2.99775 6.02925ZM2.99775 0.9495C1.86975 0.9495 0.9525 1.87575 0.9525 3.015C0.9525 4.1535 1.86975 5.07825 2.99775 5.07825C4.125 5.07825 5.0415 4.1535 5.0415 3.015C5.04075 1.8765 4.125 0.9495 2.99775 0.9495Z" fill="#323BAC"/>
</svg>
