<svg width="67" height="67" viewBox="0 0 67 67" fill="none" xmlns="http://www.w3.org/2000/svg">
<path d="M45.7484 64.9062H21.2516C18.7914 64.9062 16.75 62.9172 16.75 60.4047V6.59531C16.75 4.13516 18.7914 2.09375 21.2516 2.09375H45.7484C48.2086 2.09375 50.25 4.08281 50.25 6.59531V60.457C50.25 62.9172 48.2086 64.9062 45.7484 64.9062Z" fill="#323BAC"/>
<path d="M45.4187 62.8701H20.9009C19.7755 62.8701 18.8647 61.9593 18.8647 60.8339V10.2856C18.8647 9.16542 19.7755 8.25464 20.8956 8.25464H46.0991C47.2245 8.25464 48.1353 9.16542 48.1353 10.2908V60.5042C48.1353 60.991 47.4025 62.8701 45.4187 62.8701Z" fill="#B1C8EB"/>
<path d="M38.5512 6.06655H28.5012C28.1348 6.06655 27.873 5.75249 27.873 5.43843C27.873 5.12437 28.1871 4.8103 28.5012 4.8103H38.4988C38.8652 4.8103 39.127 5.12437 39.127 5.43843C39.127 5.75249 38.8652 6.06655 38.5512 6.06655Z" fill="white"/>
<path d="M45.7484 3.14062C47.6538 3.14062 49.2031 4.69 49.2031 6.59531V60.457C49.2031 62.3309 47.6538 63.8594 45.7484 63.8594H21.2516C19.3462 63.8594 17.7969 62.31 17.7969 60.4047V6.59531C17.7969 4.72141 19.3777 3.14062 21.2516 3.14062H45.7484ZM45.7484 2.09375H21.2516C18.7914 2.09375 16.75 4.13516 16.75 6.59531V60.4047C16.75 62.9172 18.7914 64.9062 21.2516 64.9062H45.7484C48.2086 64.9062 50.25 62.9172 50.25 60.457V6.59531C50.25 4.08281 48.2086 2.09375 45.7484 2.09375Z" fill="#323BAC"/>
<path d="M25.3082 15.6821H21.9791C21.597 15.6821 21.2882 15.3733 21.2882 14.9912V11.6621C21.2882 11.28 21.597 10.9712 21.9791 10.9712H25.3082C25.6903 10.9712 25.9991 11.28 25.9991 11.6621V14.9912C25.9991 15.3733 25.6903 15.6821 25.3082 15.6821Z" fill="#323BAC"/>
<path d="M31.8773 15.6821H28.5483C28.1662 15.6821 27.8573 15.3733 27.8573 14.9912V11.6621C27.8573 11.28 28.1662 10.9712 28.5483 10.9712H31.8773C32.2595 10.9712 32.5683 11.28 32.5683 11.6621V14.9912C32.5683 15.3733 32.2595 15.6821 31.8773 15.6821Z" fill="white"/>
<path d="M38.4465 15.6821H35.1227C34.7405 15.6821 34.4317 15.3733 34.4317 14.9912V11.6621C34.4317 11.28 34.7405 10.9712 35.1227 10.9712H38.4517C38.8338 10.9712 39.1427 11.28 39.1427 11.6621V14.9912C39.1427 15.3733 38.8338 15.6821 38.4465 15.6821Z" fill="black"/>
<path d="M45.0209 15.6821H41.6918C41.3097 15.6821 41.0009 15.3733 41.0009 14.9912V11.6621C41.0009 11.28 41.3097 10.9712 41.6918 10.9712H45.0209C45.403 10.9712 45.7118 11.28 45.7118 11.6621V14.9912C45.7118 15.3733 45.403 15.6821 45.0209 15.6821Z" fill="#323BAC"/>
<path d="M25.3082 23.094H21.9791C21.597 23.094 21.2882 22.7852 21.2882 22.4031V19.074C21.2882 18.6919 21.597 18.3831 21.9791 18.3831H25.3082C25.6903 18.3831 25.9991 18.6919 25.9991 19.074V22.4031C25.9991 22.7852 25.6903 23.094 25.3082 23.094Z" fill="white"/>
<path d="M31.8773 23.094H28.5483C28.1662 23.094 27.8573 22.7852 27.8573 22.4031V19.074C27.8573 18.6919 28.1662 18.3831 28.5483 18.3831H31.8773C32.2595 18.3831 32.5683 18.6919 32.5683 19.074V22.4031C32.5683 22.7852 32.2595 23.094 31.8773 23.094Z" fill="#323BAC"/>
<path d="M38.4465 23.094H35.1227C34.7405 23.094 34.4317 22.7852 34.4317 22.4031V19.074C34.4317 18.6919 34.7405 18.3831 35.1227 18.3831H38.4517C38.8338 18.3831 39.1427 18.6919 39.1427 19.074V22.4031C39.1427 22.7852 38.8338 23.094 38.4465 23.094Z" fill="white"/>
<path d="M45.0209 23.094H41.6918C41.3097 23.094 41.0009 22.7852 41.0009 22.4031V19.074C41.0009 18.6919 41.3097 18.3831 41.6918 18.3831H45.0209C45.403 18.3831 45.7118 18.6919 45.7118 19.074V22.4031C45.7118 22.7852 45.403 23.094 45.0209 23.094Z" fill="black"/>
<path d="M25.3082 30.5059H21.9791C21.597 30.5059 21.2882 30.197 21.2882 29.8149V26.4859C21.2882 26.1037 21.597 25.7949 21.9791 25.7949H25.3082C25.6903 25.7949 25.9991 26.1037 25.9991 26.4859V29.8149C25.9991 30.197 25.6903 30.5059 25.3082 30.5059Z" fill="black"/>
<path d="M31.8773 30.5059H28.5483C28.1662 30.5059 27.8573 30.197 27.8573 29.8149V26.4859C27.8573 26.1037 28.1662 25.7949 28.5483 25.7949H31.8773C32.2595 25.7949 32.5683 26.1037 32.5683 26.4859V29.8149C32.5683 30.197 32.2595 30.5059 31.8773 30.5059Z" fill="white"/>
<path d="M38.4465 30.5059H35.1227C34.7405 30.5059 34.4317 30.197 34.4317 29.8149V26.4859C34.4317 26.1037 34.7405 25.7949 35.1227 25.7949H38.4517C38.8338 25.7949 39.1427 26.1037 39.1427 26.4859V29.8149C39.1427 30.197 38.8338 30.5059 38.4465 30.5059Z" fill="black"/>
<path d="M45.0209 30.5059H41.6918C41.3097 30.5059 41.0009 30.197 41.0009 29.8149V26.4859C41.0009 26.1037 41.3097 25.7949 41.6918 25.7949H45.0209C45.403 25.7949 45.7118 26.1037 45.7118 26.4859V29.8149C45.7118 30.197 45.403 30.5059 45.0209 30.5059Z" fill="#323BAC"/>
<path d="M25.3082 37.9177H21.9791C21.597 37.9177 21.2882 37.6089 21.2882 37.2268V33.8977C21.2882 33.5156 21.597 33.2068 21.9791 33.2068H25.3082C25.6903 33.2068 25.9991 33.5156 25.9991 33.8977V37.2268C25.9991 37.6089 25.6903 37.9177 25.3082 37.9177Z" fill="white"/>
<path d="M31.8773 37.9177H28.5483C28.1662 37.9177 27.8573 37.6089 27.8573 37.2268V33.8977C27.8573 33.5156 28.1662 33.2068 28.5483 33.2068H31.8773C32.2595 33.2068 32.5683 33.5156 32.5683 33.8977V37.2268C32.5683 37.6089 32.2595 37.9177 31.8773 37.9177Z" fill="#323BAC"/>
<path d="M25.3082 60.1533H21.9791C21.597 60.1533 21.2882 59.8445 21.2882 59.4624V56.1333C21.2882 55.7512 21.597 55.4424 21.9791 55.4424H25.3082C25.6903 55.4424 25.9991 55.7512 25.9991 56.1333V59.4624C25.9991 59.8393 25.6903 60.1533 25.3082 60.1533Z" fill="#323BAC"/>
<path d="M31.8773 60.1533H28.5483C28.1662 60.1533 27.8573 59.8445 27.8573 59.4624V56.1333C27.8573 55.7512 28.1662 55.4424 28.5483 55.4424H31.8773C32.2595 55.4424 32.5683 55.7512 32.5683 56.1333V59.4624C32.5683 59.8393 32.2595 60.1533 31.8773 60.1533Z" fill="#323BAC"/>
<path d="M38.4465 60.1533H35.1227C34.7405 60.1533 34.4317 59.8445 34.4317 59.4624V56.1333C34.4317 55.7512 34.7405 55.4424 35.1227 55.4424H38.4517C38.8338 55.4424 39.1427 55.7512 39.1427 56.1333V59.4624C39.1427 59.8393 38.8338 60.1533 38.4465 60.1533Z" fill="#323BAC"/>
<path d="M45.0209 60.1533H41.6918C41.3097 60.1533 41.0009 59.8445 41.0009 59.4624V56.1333C41.0009 55.7512 41.3097 55.4424 41.6918 55.4424H45.0209C45.403 55.4424 45.7118 55.7512 45.7118 56.1333V59.4624C45.7118 59.8393 45.403 60.1533 45.0209 60.1533Z" fill="#323BAC"/>
</svg>
