<svg width="26" height="26" viewBox="0 0 26 26" fill="none" xmlns="http://www.w3.org/2000/svg">
<path d="M19.1482 16.7705C13.1415 16.7705 9.42001 13.1578 9.42001 7.35785C9.42001 5.70383 9.7029 4.24565 10.1055 3.46216C10.2688 3.14664 10.2906 2.99426 10.2906 2.77665C10.2906 2.41752 9.96406 1.99316 9.50707 1.99316C9.42001 1.99316 9.21322 2.0258 8.89769 2.1455C4.88232 3.77774 2.0531 8.02163 2.0531 12.5919C2.0531 19.1971 6.84105 24.0068 13.4462 24.0068C18.1907 24.0068 22.021 21.5258 23.7948 17.4561C23.9144 17.1731 23.947 16.9337 23.947 16.814C23.947 16.3679 23.5554 16.0632 23.2289 16.0632C23.044 16.0632 22.9243 16.0741 22.6631 16.172C21.7707 16.5311 20.4432 16.7705 19.1482 16.7705ZM3.76149 12.5157C3.76149 9.13156 5.51347 5.91057 8.34273 4.13682C7.99452 5.14887 7.79864 6.26965 7.79864 7.51018C7.79864 14.3112 11.9446 18.3592 18.8979 18.3592C20.0079 18.3592 20.9655 18.2286 21.8578 17.9131C20.2037 20.6444 17.0154 22.3093 13.5224 22.3093C7.87478 22.3093 3.76149 18.196 3.76149 12.5157Z" fill="white"/>
</svg>
