<svg width="50" height="50" viewBox="0 0 50 50" fill="none" xmlns="http://www.w3.org/2000/svg">
<g clip-path="url(#clip0_27_521)">
<path d="M24.7893 50C24.1197 50 23.4547 49.8243 22.8677 49.4864L16.7511 45.8651C15.8375 45.3542 16.2833 45.1735 16.5846 45.0694C17.8027 44.6429 18.0499 44.5466 19.3501 43.8082C19.4868 43.7302 19.6656 43.7578 19.8055 43.8403L24.5045 46.6287C24.6742 46.7204 24.9149 46.7204 25.0722 46.6287L43.394 36.053C43.5637 35.9567 43.6737 35.7595 43.6737 35.5577V14.4155C43.6737 14.2045 43.5637 14.0165 43.3903 13.911L25.0759 3.34446C24.9062 3.24357 24.6815 3.24357 24.5118 3.34446L6.20109 13.911C6.0236 14.0119 5.91078 14.2091 5.91078 14.4109V35.5531C5.91078 35.7549 6.02085 35.9475 6.19513 36.0438L11.2124 38.9423C13.9366 40.3044 15.6014 38.6992 15.6014 37.0849V16.2178C15.6014 15.9197 15.8352 15.6904 16.1333 15.6904H18.4539C18.7429 15.6904 18.9814 15.9197 18.9814 16.2178V37.0941C18.9814 40.7263 17.0001 42.813 13.5559 42.813C12.4965 42.813 11.6618 42.813 9.33206 41.6665L4.52576 38.8964C3.33794 38.2085 2.60416 36.9244 2.60416 35.5531V14.4109C2.60416 13.035 3.33794 11.7509 4.52576 11.0722L22.8658 0.491866C24.0261 -0.163955 25.5671 -0.163955 26.7182 0.491866L45.0354 11.0767C46.2186 11.7601 46.957 13.0396 46.957 14.4155V35.5577C46.957 36.929 46.2186 38.2085 45.0354 38.8964L26.7182 49.4767C26.1312 49.8161 25.4662 49.9904 24.7874 49.9904L24.7893 50ZM30.4486 35.4316C22.432 35.4316 20.7512 31.7516 20.7512 28.6651C20.7512 28.3716 20.9878 28.1377 21.2818 28.1377H23.6482C23.9097 28.1377 24.1298 28.3281 24.1711 28.5863C24.5288 30.9977 25.5928 32.2139 30.4404 32.2139C34.3019 32.2139 35.9438 31.3416 35.9438 29.2939C35.9438 28.1153 35.476 27.2393 29.4773 26.6523C24.46 26.157 21.3597 25.0517 21.3597 21.0388C21.3597 17.3424 24.4783 15.141 29.702 15.141C35.5677 15.141 38.4753 17.1773 38.8422 21.5525C38.856 21.7038 38.8009 21.8506 38.7 21.9606C38.5991 22.0661 38.457 22.1303 38.3102 22.1303H35.93C35.6823 22.1303 35.4668 21.956 35.4163 21.7176C34.8431 19.1814 33.4581 18.3697 29.6928 18.3697C25.4781 18.3697 24.9874 19.8372 24.9874 20.9379C24.9874 22.2725 25.5653 22.6623 31.2521 23.4144C36.8839 24.162 39.5577 25.2168 39.5577 29.1747C39.5577 33.1646 36.2281 35.4531 30.422 35.4531L30.4486 35.4316Z" fill="#689F63"/>
</g>
<defs>
<clipPath id="clip0_27_521">
<rect width="50" height="50" fill="white"/>
</clipPath>
</defs>
</svg>
