<svg width="88" height="57" viewBox="0 0 88 57" fill="none" xmlns="http://www.w3.org/2000/svg">
<path d="M43.5225 57C43.2242 57 42.9457 56.9158 42.6871 56.7686L40.0415 55.1063C39.6437 54.8749 39.8426 54.7907 39.962 54.7486C40.499 54.5593 40.5985 54.5172 41.1555 54.1805C41.2151 54.1384 41.2947 54.1595 41.3544 54.2016L43.3833 55.4851C43.4629 55.5271 43.5623 55.5271 43.622 55.4851L51.5587 50.6246C51.6383 50.5825 51.6781 50.4983 51.6781 50.3931V40.6933C51.6781 40.588 51.6383 40.5039 51.5587 40.4618L43.622 35.6224C43.5424 35.5803 43.443 35.5803 43.3833 35.6224L35.4466 40.4618C35.367 40.5039 35.3272 40.6091 35.3272 40.6933V50.3931C35.3272 50.4773 35.367 50.5825 35.4466 50.6246L37.6148 51.9502C38.7884 52.5814 39.5244 51.845 39.5244 51.1085V41.5349C39.5244 41.4086 39.6238 41.2824 39.7631 41.2824H40.7775C40.8969 41.2824 41.0162 41.3876 41.0162 41.5349V51.1085C41.0162 52.7708 40.1609 53.7387 38.669 53.7387C38.2115 53.7387 37.8535 53.7387 36.839 53.2126L34.7504 51.9502C34.2332 51.6346 33.9149 51.0454 33.9149 50.4142V40.7143C33.9149 40.0831 34.2332 39.4939 34.7504 39.1783L42.6871 34.3178C43.1844 34.0233 43.8607 34.0233 44.358 34.3178L52.2947 39.1783C52.8119 39.4939 53.1301 40.0831 53.1301 40.7143V50.4142C53.1301 51.0454 52.8119 51.6346 52.2947 51.9502L44.358 56.8106C44.0994 56.9369 43.801 57 43.5225 57ZM45.9692 50.33C42.4882 50.33 41.7721 48.6467 41.7721 47.216C41.7721 47.0897 41.8716 46.9635 42.0108 46.9635H43.0452C43.1645 46.9635 43.264 47.0476 43.264 47.1739C43.4231 48.289 43.8806 48.8361 45.9891 48.8361C47.66 48.8361 48.3761 48.4363 48.3761 47.4895C48.3761 46.9424 48.1772 46.5426 45.5714 46.2691C43.4032 46.0377 42.0506 45.5327 42.0506 43.7021C42.0506 41.9978 43.4032 40.9878 45.6708 40.9878C48.2169 40.9878 49.4701 41.9136 49.6292 43.9336C49.6292 43.9967 49.6094 44.0598 49.5696 44.1229C49.5298 44.165 49.4701 44.2071 49.4104 44.2071H48.3761C48.2766 44.2071 48.1772 44.1229 48.1573 44.0177C47.9186 42.8605 47.3019 42.4817 45.6708 42.4817C43.8408 42.4817 43.622 43.155 43.622 43.66C43.622 44.2702 43.8806 44.4596 46.3471 44.7962C48.7938 45.1329 49.9475 45.6168 49.9475 47.4264C49.9276 49.278 48.4954 50.33 45.9692 50.33Z" fill="#539E43"/>
<path d="M18.8969 19.0631C18.8969 18.6844 18.698 18.3267 18.3798 18.1373L9.94575 13.0033C9.80651 12.9192 9.64738 12.8771 9.48825 12.856H9.40868C9.24955 12.856 9.09042 12.9192 8.95118 13.0033L0.517179 18.1373C0.198915 18.3267 0 18.6844 0 19.0631L0.0198915 32.866C0.0198915 33.0554 0.119349 33.2447 0.278481 33.3289C0.437613 33.4341 0.636528 33.4341 0.775769 33.3289L5.78843 30.299C6.10669 30.1096 6.30561 29.7519 6.30561 29.3732V22.9136C6.30561 22.5349 6.50452 22.1772 6.82279 21.9878L8.95118 20.6833C9.11031 20.5781 9.28933 20.536 9.46836 20.536C9.64738 20.536 9.82641 20.5781 9.96565 20.6833L12.094 21.9878C12.4123 22.1772 12.6112 22.5349 12.6112 22.9136V29.3732C12.6112 29.7519 12.8101 30.1096 13.1284 30.299L18.1411 33.3289C18.3002 33.4341 18.4991 33.4341 18.6582 33.3289C18.8174 33.2447 18.9168 33.0554 18.9168 32.866L18.8969 19.0631Z" fill="#333333"/>
<path d="M59.4359 0.0631229C59.2767 -0.021041 59.0778 -0.021041 58.9386 0.0631229C58.7795 0.168328 58.68 0.336656 58.68 0.526024V14.2027C58.68 14.3289 58.6203 14.4551 58.501 14.5393C58.3816 14.6024 58.2623 14.6024 58.1429 14.5393L56.0344 13.2558C55.7162 13.0664 55.3382 13.0664 55.02 13.2558L46.586 18.4109C46.2677 18.6002 46.0688 18.9579 46.0688 19.3367V29.6257C46.0688 30.0044 46.2677 30.3621 46.586 30.5515L55.02 35.7065C55.3382 35.8959 55.7162 35.8959 56.0344 35.7065L64.4684 30.5515C64.7867 30.3621 64.9856 30.0044 64.9856 29.6257V3.97674C64.9856 3.57696 64.7867 3.21927 64.4684 3.0299L59.4359 0.0631229ZM58.6601 26.2381C58.6601 26.3433 58.6203 26.4275 58.5408 26.4695L55.6565 28.237C55.5769 28.2791 55.4775 28.2791 55.3979 28.237L52.5136 26.4695C52.4341 26.4275 52.3943 26.3223 52.3943 26.2381V22.7032C52.3943 22.598 52.4341 22.5138 52.5136 22.4718L55.3979 20.7043C55.4775 20.6622 55.5769 20.6622 55.6565 20.7043L58.5408 22.4718C58.6203 22.5138 58.6601 22.619 58.6601 22.7032V26.2381Z" fill="#333333"/>
<path d="M87.5027 22.619C87.821 22.4297 88 22.072 88 21.6932V19.1894C88 18.8106 87.8011 18.4529 87.5027 18.2636L79.1284 13.1296C78.8101 12.9402 78.4322 12.9402 78.1139 13.1296L69.6799 18.2846C69.3616 18.474 69.1627 18.8317 69.1627 19.2104V29.4994C69.1627 29.8782 69.3616 30.2359 69.6799 30.4252L78.0542 35.4751C78.3725 35.6644 78.7504 35.6644 79.0488 35.4751L84.1211 32.4873C84.2803 32.4031 84.3797 32.2137 84.3797 32.0244C84.3797 31.835 84.2803 31.6456 84.1211 31.5615L75.6474 26.4064C75.4882 26.3012 75.3888 26.1329 75.3888 25.9435V22.7242C75.3888 22.5349 75.4882 22.3455 75.6474 22.2613L78.2929 20.6622C78.4521 20.557 78.651 20.557 78.8101 20.6622L81.4557 22.2613C81.6148 22.3666 81.7143 22.5349 81.7143 22.7242V25.2492C81.7143 25.4385 81.8137 25.6279 81.9728 25.7121C82.132 25.8173 82.3309 25.8173 82.49 25.7121L87.5027 22.619Z" fill="#333333"/>
<path d="M78.4919 22.1351C78.5516 22.093 78.6312 22.093 78.6908 22.1351L80.302 23.124C80.3617 23.1661 80.4015 23.2292 80.4015 23.3134V25.2913C80.4015 25.3754 80.3617 25.4385 80.302 25.4806L78.6908 26.4695C78.6312 26.5116 78.5516 26.5116 78.4919 26.4695L76.8807 25.4806C76.821 25.4385 76.7812 25.3754 76.7812 25.2913V23.3134C76.7812 23.2292 76.821 23.1661 76.8807 23.124L78.4919 22.1351Z" fill="#539E43"/>
<path d="M33 13.1717C32.6817 12.9823 32.3038 12.9823 31.9855 13.1717L23.6112 18.2846C23.2929 18.474 23.1139 18.8317 23.1139 19.2104V29.4574C23.1139 29.8361 23.3128 30.1938 23.6112 30.3832L31.9855 35.4961C32.3038 35.6855 32.6817 35.6855 33 35.4961L41.3743 30.3832C41.6926 30.1938 41.8716 29.8361 41.8716 29.4574V19.2104C41.8716 18.8317 41.6727 18.474 41.3743 18.2846L33 13.1717Z" fill="url(#paint0_linear_8_81)"/>
<defs>
<linearGradient id="paint0_linear_8_81" x1="35.9045" y1="16.9831" x2="25.974" y2="31.7339" gradientUnits="userSpaceOnUse">
<stop stop-color="#41873F"/>
<stop offset="0.3288" stop-color="#418B3D"/>
<stop offset="0.6352" stop-color="#419637"/>
<stop offset="0.9319" stop-color="#3FA92D"/>
<stop offset="1" stop-color="#3FAE2A"/>
</linearGradient>
</defs>
</svg>
