<svg width="30" height="30" viewBox="0 0 30 30" fill="none" xmlns="http://www.w3.org/2000/svg">
<path d="M15 22.6125C13.4943 22.6125 12.0225 22.1661 10.7707 21.3296C9.51881 20.4931 8.54309 19.3042 7.96692 17.9132C7.39075 16.5222 7.24 14.9916 7.53373 13.5149C7.82746 12.0382 8.55248 10.6818 9.6171 9.61717C10.6817 8.55254 12.0381 7.82752 13.5148 7.53379C14.9915 7.24006 16.5221 7.39081 17.9131 7.96698C19.3041 8.54315 20.493 9.51887 21.3295 10.7707C22.166 12.0226 22.6125 13.4944 22.6125 15C22.6091 17.018 21.8061 18.9523 20.3792 20.3792C18.9523 21.8061 17.0179 22.6092 15 22.6125ZM15 8.63752C13.7416 8.63752 12.5114 9.01067 11.4651 9.70979C10.4188 10.4089 9.60333 11.4026 9.12177 12.5652C8.64021 13.7278 8.51421 15.0071 8.75971 16.2413C9.00521 17.4755 9.61118 18.6092 10.501 19.499C11.3908 20.3888 12.5245 20.9948 13.7587 21.2403C14.9929 21.4858 16.2722 21.3598 17.4348 20.8782C18.5974 20.3966 19.5911 19.5811 20.2902 18.5348C20.9893 17.4885 21.3625 16.2584 21.3625 15C21.3592 13.3136 20.6878 11.6972 19.4953 10.5047C18.3028 9.31221 16.6864 8.64082 15 8.63752Z" fill="black"/>
<path d="M14.375 3.21002V5.21002C14.375 5.37578 14.4408 5.53475 14.5581 5.65196C14.6753 5.76917 14.8342 5.83502 15 5.83502C15.1658 5.83502 15.3247 5.76917 15.4419 5.65196C15.5592 5.53475 15.625 5.37578 15.625 5.21002V3.21002C15.625 3.04426 15.5592 2.88529 15.4419 2.76808C15.3247 2.65087 15.1658 2.58502 15 2.58502C14.8342 2.58502 14.6753 2.65087 14.5581 2.76808C14.4408 2.88529 14.375 3.04426 14.375 3.21002Z" fill="black"/>
<path d="M15.625 26.79V24.79C15.625 24.6243 15.5592 24.4653 15.4419 24.3481C15.3247 24.2309 15.1658 24.165 15 24.165C14.8342 24.165 14.6753 24.2309 14.5581 24.3481C14.4408 24.4653 14.375 24.6243 14.375 24.79V26.79C14.375 26.9558 14.4408 27.1148 14.5581 27.232C14.6753 27.3492 14.8342 27.415 15 27.415C15.1658 27.415 15.3247 27.3492 15.4419 27.232C15.5592 27.1148 15.625 26.9558 15.625 26.79Z" fill="black"/>
<path d="M26.79 14.375H24.79C24.6243 14.375 24.4653 14.4408 24.3481 14.5581C24.2309 14.6753 24.165 14.8342 24.165 15C24.165 15.1658 24.2309 15.3247 24.3481 15.4419C24.4653 15.5592 24.6243 15.625 24.79 15.625H26.79C26.9558 15.625 27.1148 15.5592 27.232 15.4419C27.3492 15.3247 27.415 15.1658 27.415 15C27.415 14.8342 27.3492 14.6753 27.232 14.5581C27.1148 14.4408 26.9558 14.375 26.79 14.375Z" fill="black"/>
<path d="M3.20996 15.625H5.20996C5.37572 15.625 5.53469 15.5592 5.6519 15.4419C5.76911 15.3247 5.83496 15.1658 5.83496 15C5.83496 14.8342 5.76911 14.6753 5.6519 14.5581C5.53469 14.4408 5.37572 14.375 5.20996 14.375H3.20996C3.0442 14.375 2.88523 14.4408 2.76802 14.5581C2.65081 14.6753 2.58496 14.8342 2.58496 15C2.58496 15.1658 2.65081 15.3247 2.76802 15.4419C2.88523 15.5592 3.0442 15.625 3.20996 15.625Z" fill="black"/>
<path d="M22.8949 6.22129L21.6549 7.46129L21.4786 7.63754C21.3634 7.75571 21.298 7.91372 21.2961 8.07879C21.2969 8.24445 21.3624 8.40324 21.4786 8.52129C21.5368 8.57929 21.6058 8.62526 21.6817 8.65658C21.7577 8.68789 21.839 8.70393 21.9211 8.70379C22.0862 8.70177 22.2441 8.63644 22.3624 8.52129L23.6024 7.28129L23.7786 7.10504C23.8945 6.98667 23.9604 6.82819 23.9624 6.66254C23.9609 6.49713 23.895 6.33882 23.7786 6.22129C23.6617 6.10399 23.503 6.0379 23.3374 6.03754C23.1719 6.04046 23.0138 6.10614 22.8949 6.22129Z" fill="black"/>
<path d="M7.10485 23.7788L8.34485 22.5388L8.5211 22.3625C8.63636 22.2443 8.70171 22.0863 8.7036 21.9213C8.70282 21.7556 8.63733 21.5968 8.5211 21.4788C8.46295 21.4208 8.39394 21.3748 8.31802 21.3435C8.24209 21.3122 8.16073 21.2961 8.0786 21.2963C7.91356 21.2983 7.7556 21.3636 7.63735 21.4788L6.39735 22.7188L6.2211 22.895C6.1052 23.0134 6.03939 23.1719 6.03735 23.3375C6.0388 23.5029 6.10472 23.6612 6.2211 23.7788C6.33803 23.8961 6.49673 23.9621 6.66235 23.9625C6.82782 23.9596 6.98599 23.8939 7.10485 23.7788Z" fill="black"/>
<path d="M23.7786 22.895L22.5386 21.655L22.3624 21.4788C22.2442 21.3635 22.0862 21.2982 21.9211 21.2963C21.7555 21.297 21.5967 21.3625 21.4786 21.4788C21.4206 21.5369 21.3747 21.6059 21.3434 21.6818C21.312 21.7578 21.296 21.8391 21.2961 21.9213C21.2982 22.0863 21.3635 22.2443 21.4786 22.3625L22.7186 23.6025L22.8949 23.7788C23.0133 23.8947 23.1717 23.9605 23.3374 23.9625C23.5028 23.9611 23.6611 23.8951 23.7786 23.7788C23.8959 23.6618 23.962 23.5031 23.9624 23.3375C23.9595 23.172 23.8938 23.0139 23.7786 22.895Z" fill="black"/>
<path d="M6.2211 7.10504L7.4611 8.34504L7.63735 8.52129C7.75553 8.63655 7.91354 8.7019 8.0786 8.70379C8.24426 8.703 8.40306 8.63751 8.5211 8.52129C8.57911 8.46314 8.62508 8.39413 8.65639 8.3182C8.68771 8.24227 8.70375 8.16092 8.7036 8.07879C8.70159 7.91375 8.63625 7.75579 8.5211 7.63754L7.2811 6.39754L7.10485 6.22129C6.98649 6.10538 6.828 6.03957 6.66235 6.03754C6.49695 6.03898 6.33864 6.10491 6.2211 6.22129C6.10381 6.33821 6.03772 6.49692 6.03735 6.66254C6.04027 6.828 6.10596 6.98618 6.2211 7.10504Z" fill="black"/>
</svg>
