<svg width="24" height="22" viewBox="0 0 24 22" fill="none" xmlns="http://www.w3.org/2000/svg">
<path d="M17.817 21.1035C17.4072 21.1032 17.0106 20.9588 16.6965 20.6955L12.422 17.1335L9.8905 19.6645C9.78562 19.7693 9.65204 19.8406 9.50664 19.8695C9.36124 19.8984 9.21055 19.8835 9.07358 19.8268C8.93662 19.7701 8.81953 19.6741 8.73711 19.5508C8.65469 19.4276 8.61064 19.2827 8.61051 19.1345V14.1085C8.61046 14.01 8.62982 13.9124 8.66748 13.8214C8.70515 13.7304 8.76037 13.6477 8.83 13.578L12.521 9.88701L6.76051 13.727C6.65677 13.7962 6.53744 13.8384 6.4133 13.8498C6.28916 13.8612 6.16413 13.8415 6.04951 13.7925L1.31401 11.763C0.991929 11.625 0.718527 11.3938 0.529002 11.0991C0.339476 10.8044 0.242505 10.4597 0.250572 10.1094C0.25864 9.75911 0.371377 9.41925 0.574269 9.13358C0.777161 8.84791 1.06092 8.62952 1.38901 8.50651L21.3775 1.01051C21.6771 0.898285 22.0018 0.870087 22.3163 0.928962C22.6308 0.987838 22.9232 1.13155 23.1619 1.34456C23.4007 1.55758 23.5767 1.83179 23.6709 2.13757C23.7651 2.44335 23.774 2.76906 23.6965 3.07951L19.523 19.773C19.4518 20.0616 19.308 20.3272 19.1054 20.5447C18.9027 20.7621 18.6479 20.9242 18.365 21.0155C18.1881 21.0734 18.0032 21.1031 17.817 21.1035ZM12.376 15.3685C12.5514 15.3686 12.7213 15.4302 12.856 15.5425L17.656 19.5425C17.6891 19.5705 17.7288 19.5895 17.7714 19.5978C17.8139 19.606 17.8579 19.6031 17.899 19.5895C17.9404 19.5765 17.9777 19.553 18.0072 19.5213C18.0367 19.4896 18.0575 19.4507 18.0675 19.4085L22.2405 2.71551C22.2516 2.67049 22.2502 2.6233 22.2365 2.57902C22.2227 2.53473 22.1972 2.49503 22.1626 2.46417C22.128 2.43332 22.0856 2.41248 22.0401 2.40391C21.9945 2.39534 21.9475 2.39935 21.904 2.41551L1.91551 9.91051C1.86779 9.92848 1.82654 9.96031 1.79706 10.0019C1.76759 10.0435 1.75123 10.093 1.7501 10.144C1.74897 10.1949 1.76312 10.2451 1.79073 10.288C1.81833 10.3308 1.85813 10.3644 1.90501 10.3845L6.26651 12.2535L15.8795 5.84501C16.086 5.70382 16.338 5.64517 16.5857 5.68065C16.8333 5.71613 17.0587 5.84315 17.2173 6.03665C17.3759 6.23015 17.4562 6.47607 17.4423 6.72587C17.4285 6.97568 17.3215 7.21122 17.1425 7.38601L10.1105 14.419V17.3235L11.8455 15.5885C11.9151 15.5188 11.9978 15.4635 12.0889 15.4257C12.1799 15.388 12.2775 15.3685 12.376 15.3685Z" fill="#323BAC"/>
</svg>
