<svg width="76" height="75" viewBox="0 0 76 75" fill="none" xmlns="http://www.w3.org/2000/svg">
<ellipse cx="38" cy="37.5" rx="38" ry="37.5" fill="black"/>
<path d="M53.5312 53.4062L53.9609 49.3633C53.9609 47.7227 53.2904 46.4727 51.9492 45.6133C50.6211 44.7409 49.2214 44.3568 47.75 44.4609C46.2786 44.5521 45.25 45.0469 44.6641 45.9453C44.3646 46.375 44.2148 46.8828 44.2148 47.4688L44.1172 52.7031C44.1172 53.4193 44.2279 54.4805 44.4492 55.8867C44.6706 57.306 44.7812 58.3737 44.7812 59.0898C44.7812 60.3529 44.4232 60.9844 43.707 60.9844C42.9909 60.9844 42.6328 60.3724 42.6328 59.1484C42.6328 58.3411 42.75 57.1823 42.9844 55.6719C43.2188 54.1615 43.349 53.0156 43.375 52.2344C43.4141 51.4531 43.4336 49.7865 43.4336 47.2344C43.4336 46.5573 43.2253 45.776 42.8086 44.8906C42.3919 44.0052 41.7344 42.7878 40.8359 41.2383C39.9375 39.6888 39.2018 38.3216 38.6289 37.1367L38.043 36.8047C37.7305 37.3776 37.1771 37.6641 36.3828 37.6641L34.7422 37.7227C33.6224 37.7227 32.7826 37.4492 32.2227 36.9023L31.8125 37.293C31.8516 37.7747 31.8711 38.8034 31.8711 40.3789L31.8516 45.1641C31.8516 46.5964 31.8776 47.651 31.9297 48.3281L32.3008 51.1992C32.3008 51.7331 32.1185 52 31.7539 52C31.3893 52 31.207 51.7526 31.207 51.2578L31.5195 48.8359C31.5195 48.25 31.3438 47.7812 30.9922 47.4297C30.6536 47.0911 30.2044 46.9219 29.6445 46.9219C29.0977 46.9219 28.6094 47.1628 28.1797 47.6445C27.763 48.1393 27.5547 48.7773 27.5547 49.5586C27.5547 50.3398 27.6979 51.3945 27.9844 52.7227C28.2708 54.0638 28.4141 55.0273 28.4141 55.6133C28.4141 56.8372 27.9779 57.4492 27.1055 57.4492C26.2331 57.4492 25.7969 56.8503 25.7969 55.6523C25.7969 55.0924 25.9206 54.1159 26.168 52.7227C26.4284 51.3294 26.5586 50.2227 26.5586 49.4023C26.5586 48.582 26.3698 47.9049 25.9922 47.3711C25.6146 46.8503 25.1849 46.5898 24.7031 46.5898C24.2214 46.5898 23.8112 46.7526 23.4727 47.0781C23.1341 47.4167 22.9648 47.8333 22.9648 48.3281L23.4922 52.957C23.4922 53.7513 23.1992 54.1484 22.6133 54.1484C22.0273 54.1484 21.7344 53.7448 21.7344 52.9375C21.7344 52.4688 21.8581 51.6484 22.1055 50.4766C22.3529 49.3177 22.4701 48.4128 22.457 47.7617C22.444 47.1107 22.4375 38.6862 22.4375 22.4883C22.4375 21.681 22.1901 21.0365 21.6953 20.5547L22.0859 20.1641C22.5938 20.6589 23.2383 20.9062 24.0195 20.9062H41.5195C44.2539 20.9062 46.0898 20.9909 47.0273 21.1602C47.9779 21.3164 48.8047 21.4857 49.5078 21.668C50.224 21.8503 50.8229 22.0781 51.3047 22.3516C51.7995 22.612 52.2943 22.944 52.7891 23.3477C53.2969 23.7383 53.7005 24.1875 54 24.6953C54.6901 25.8542 55.0352 27.0846 55.0352 28.3867C55.0352 29.6888 54.931 30.7565 54.7227 31.5898C54.5273 32.4102 54.1953 33.1849 53.7266 33.9141C52.7109 35.4896 50.9271 36.2773 48.375 36.2773L48.2188 36.7266C49.0391 37.0521 49.5859 37.5013 49.8594 38.0742C51.0052 40.5742 51.8516 42.1628 52.3984 42.8398C52.9453 43.5039 53.4531 44.0378 53.9219 44.4414C54.3906 44.8451 55.0612 45.2552 55.9336 45.6719C56.806 46.0885 57.3333 46.362 57.5156 46.4922C57.6979 46.6094 57.7891 46.707 57.7891 46.7852C57.7891 48.0872 57.9648 49.7604 58.3164 51.8047C58.668 53.849 58.8438 55.1641 58.8438 55.75C58.8438 56.3359 58.8177 56.7591 58.7656 57.0195C58.7266 57.2799 58.6289 57.5339 58.4727 57.7812C58.3164 58.0417 58.0885 58.1719 57.7891 58.1719C57.4896 58.1719 57.2617 57.957 57.1055 57.5273C56.9622 57.0977 56.8906 56.5703 56.8906 55.9453C56.8906 55.3203 56.9753 54.2005 57.1445 52.5859C57.3138 50.9844 57.3984 49.7734 57.3984 48.9531C57.3984 47.3255 56.8711 46.5117 55.8164 46.5117C55.2956 46.5117 54.9049 46.6029 54.6445 46.7852C54.3971 46.9674 54.2734 47.3385 54.2734 47.8984C54.2734 48.4714 54.3906 49.3763 54.625 50.6133C54.8594 51.8503 54.9766 52.7812 54.9766 53.4062C54.9766 54.0443 54.7357 54.3633 54.2539 54.3633C53.7721 54.3633 53.5312 54.0443 53.5312 53.4062ZM40.5234 27.3906L35.9141 27.5273C34.026 27.5273 32.7956 27.2474 32.2227 26.6875L31.8125 27.0586C32.3333 27.5664 32.5938 28.2174 32.5938 29.0117V30.3203C32.5938 31.1016 32.3333 31.7526 31.8125 32.2734L32.2227 32.6641C32.7826 32.0911 33.9414 31.8047 35.6992 31.8047L40.6406 31.9805C41.9557 31.9805 42.9714 31.8112 43.6875 31.4727C44.4167 31.1211 44.7812 30.4831 44.7812 29.5586C44.7812 28.9727 44.5794 28.5169 44.1758 28.1914C43.7721 27.8529 43.2839 27.638 42.7109 27.5469C42.138 27.4427 41.4089 27.3906 40.5234 27.3906Z" fill="white"/>
</svg>
